<svg xmlns="http://www.w3.org/2000/svg" xmlns:xlink="http://www.w3.org/1999/xlink" width="336" zoomAndPan="magnify" viewBox="0 0 252 143.999998" height="192" preserveAspectRatio="xMidYMid meet" version="1.0"><defs><g/><clipPath id="5225df86fc"><path d="M 75.621094 85.648438 L 176.078125 85.648438 L 176.078125 127.644531 L 75.621094 127.644531 Z M 75.621094 85.648438 " clip-rule="nonzero"/></clipPath></defs><g fill="#2b2b2b" fill-opacity="1"><g transform="translate(15.178913, 44.02499)"><g><path d="M 28.203125 -16.171875 L 28.203125 -9.90625 C 27.460938 -6.476562 25.832031 -3.878906 23.3125 -2.109375 C 20.789062 -0.347656 17.976562 0.53125 14.875 0.53125 C 10.976562 0.53125 7.660156 -0.925781 4.921875 -3.84375 C 2.179688 -6.757812 0.8125 -10.285156 0.8125 -14.421875 C 0.8125 -18.617188 2.148438 -22.164062 4.828125 -25.0625 C 7.515625 -27.957031 10.863281 -29.40625 14.875 -29.40625 C 19.5625 -29.40625 23.269531 -27.757812 26 -24.46875 L 21.703125 -19.734375 C 20.160156 -22.210938 18.015625 -23.453125 15.265625 -23.453125 C 13.234375 -23.453125 11.5 -22.570312 10.0625 -20.8125 C 8.625 -19.050781 7.90625 -16.921875 7.90625 -14.421875 C 7.90625 -11.972656 8.625 -9.878906 10.0625 -8.140625 C 11.5 -6.398438 13.234375 -5.53125 15.265625 -5.53125 C 16.941406 -5.53125 18.40625 -6.035156 19.65625 -7.046875 C 20.90625 -8.066406 21.53125 -9.414062 21.53125 -11.09375 L 14.875 -11.09375 L 14.875 -16.171875 Z M 28.203125 -16.171875 "/></g></g></g><g fill="#2b2b2b" fill-opacity="1"><g transform="translate(41.73737, 44.02499)"><g><path d="M 2.09375 -28.875 L 12.421875 -28.875 C 15.203125 -28.875 17.46875 -28.132812 19.21875 -26.65625 C 20.96875 -25.175781 21.84375 -23.054688 21.84375 -20.296875 C 21.84375 -18.171875 21.3125 -16.390625 20.25 -14.953125 C 19.1875 -13.523438 17.742188 -12.519531 15.921875 -11.9375 L 25.859375 0 L 17.5 0 L 8.6875 -11.40625 L 8.6875 0 L 2.09375 0 Z M 8.6875 -16.0625 L 9.453125 -16.0625 C 10.054688 -16.0625 10.566406 -16.070312 10.984375 -16.09375 C 11.410156 -16.125 11.890625 -16.207031 12.421875 -16.34375 C 12.960938 -16.488281 13.394531 -16.6875 13.71875 -16.9375 C 14.039062 -17.195312 14.316406 -17.570312 14.546875 -18.0625 C 14.785156 -18.550781 14.90625 -19.144531 14.90625 -19.84375 C 14.90625 -20.539062 14.785156 -21.132812 14.546875 -21.625 C 14.316406 -22.113281 14.039062 -22.488281 13.71875 -22.75 C 13.394531 -23.007812 12.960938 -23.207031 12.421875 -23.34375 C 11.890625 -23.488281 11.410156 -23.570312 10.984375 -23.59375 C 10.566406 -23.613281 10.054688 -23.625 9.453125 -23.625 L 8.6875 -23.625 Z M 8.6875 -16.0625 "/></g></g></g><g fill="#2b2b2b" fill-opacity="1"><g transform="translate(64.341721, 44.02499)"><g><path d="M 18.625 -28.875 L 18.625 -23.09375 L 8.6875 -23.09375 L 8.6875 -17.359375 L 18.203125 -17.359375 L 18.203125 -11.578125 L 8.6875 -11.578125 L 8.6875 -5.78125 L 18.625 -5.78125 L 18.625 0 L 2.09375 0 L 2.09375 -28.875 Z M 18.625 -28.875 "/></g></g></g><g fill="#2b2b2b" fill-opacity="1"><g transform="translate(82.18715, 44.02499)"><g><path d="M 16.765625 -28.875 L 28.421875 0 L 21.34375 0 L 19.21875 -5.78125 L 8.21875 -5.78125 L 6.09375 0 L -0.984375 0 L 10.671875 -28.875 Z M 16.96875 -11.546875 L 13.75 -19.953125 L 13.6875 -19.953125 L 10.46875 -11.546875 Z M 16.96875 -11.546875 "/></g></g></g><g fill="#2b2b2b" fill-opacity="1"><g transform="translate(107.170969, 44.02499)"><g><path d="M 0.28125 -23.09375 L 0.28125 -28.875 L 20.578125 -28.875 L 20.578125 -23.09375 L 13.71875 -23.09375 L 13.71875 0 L 7.140625 0 L 7.140625 -23.09375 Z M 0.28125 -23.09375 "/></g></g></g><g fill="#2b2b2b" fill-opacity="1"><g transform="translate(125.57626, 44.02499)"><g/></g></g><g fill="#2b2b2b" fill-opacity="1"><g transform="translate(132.679104, 44.02499)"><g><path d="M 2.09375 -28.875 L 11.0625 -28.875 C 13.769531 -28.875 15.925781 -28.296875 17.53125 -27.140625 C 19.144531 -25.984375 19.953125 -24.113281 19.953125 -21.53125 C 19.953125 -18.632812 18.75 -16.566406 16.34375 -15.328125 C 20.445312 -14.609375 22.5 -12.179688 22.5 -8.046875 C 22.5 -5.617188 21.660156 -3.671875 19.984375 -2.203125 C 18.304688 -0.734375 16 0 13.0625 0 L 2.09375 0 Z M 8.6875 -17.5625 L 9.203125 -17.5625 C 10.671875 -17.5625 11.765625 -17.816406 12.484375 -18.328125 C 13.210938 -18.847656 13.578125 -19.691406 13.578125 -20.859375 C 13.578125 -22.816406 12.117188 -23.796875 9.203125 -23.796875 L 8.6875 -23.796875 Z M 8.6875 -5.078125 L 10.75 -5.078125 C 13.96875 -5.078125 15.578125 -6.148438 15.578125 -8.296875 C 15.578125 -9.578125 15.171875 -10.5 14.359375 -11.0625 C 13.554688 -11.625 12.351562 -11.90625 10.75 -11.90625 L 8.6875 -11.90625 Z M 8.6875 -5.078125 "/></g></g></g><g fill="#2b2b2b" fill-opacity="1"><g transform="translate(153.533854, 44.02499)"><g><path d="M 16.765625 -28.875 L 28.421875 0 L 21.34375 0 L 19.21875 -5.78125 L 8.21875 -5.78125 L 6.09375 0 L -0.984375 0 L 10.671875 -28.875 Z M 16.96875 -11.546875 L 13.75 -19.953125 L 13.6875 -19.953125 L 10.46875 -11.546875 Z M 16.96875 -11.546875 "/></g></g></g><g fill="#2b2b2b" fill-opacity="1"><g transform="translate(178.517679, 44.02499)"><g><path d="M 12.734375 -29.40625 C 14.296875 -29.40625 15.820312 -29.175781 17.3125 -28.71875 C 18.8125 -28.257812 19.925781 -27.8125 20.65625 -27.375 L 21.703125 -26.671875 L 19.046875 -21.421875 C 18.828125 -21.554688 18.53125 -21.734375 18.15625 -21.953125 C 17.789062 -22.179688 17.09375 -22.484375 16.0625 -22.859375 C 15.039062 -23.234375 14.082031 -23.421875 13.1875 -23.421875 C 12.09375 -23.421875 11.25 -23.1875 10.65625 -22.71875 C 10.0625 -22.25 9.765625 -21.617188 9.765625 -20.828125 C 9.765625 -20.429688 9.90625 -20.0625 10.1875 -19.71875 C 10.46875 -19.382812 10.945312 -19.023438 11.625 -18.640625 C 12.300781 -18.253906 12.894531 -17.941406 13.40625 -17.703125 C 13.914062 -17.472656 14.707031 -17.125 15.78125 -16.65625 C 17.644531 -15.863281 19.238281 -14.785156 20.5625 -13.421875 C 21.882812 -12.054688 22.546875 -10.507812 22.546875 -8.78125 C 22.546875 -7.125 22.242188 -5.675781 21.640625 -4.4375 C 21.046875 -3.207031 20.226562 -2.238281 19.1875 -1.53125 C 18.15625 -0.832031 17.007812 -0.316406 15.75 0.015625 C 14.488281 0.359375 13.125 0.53125 11.65625 0.53125 C 10.394531 0.53125 9.15625 0.398438 7.9375 0.140625 C 6.726562 -0.117188 5.710938 -0.441406 4.890625 -0.828125 C 4.078125 -1.210938 3.34375 -1.585938 2.6875 -1.953125 C 2.039062 -2.328125 1.566406 -2.644531 1.265625 -2.90625 L 0.8125 -3.296875 L 4.09375 -8.8125 C 4.375 -8.582031 4.757812 -8.285156 5.25 -7.921875 C 5.738281 -7.566406 6.609375 -7.082031 7.859375 -6.46875 C 9.109375 -5.863281 10.210938 -5.5625 11.171875 -5.5625 C 13.941406 -5.5625 15.328125 -6.507812 15.328125 -8.40625 C 15.328125 -8.800781 15.226562 -9.164062 15.03125 -9.5 C 14.832031 -9.84375 14.484375 -10.179688 13.984375 -10.515625 C 13.484375 -10.859375 13.039062 -11.128906 12.65625 -11.328125 C 12.269531 -11.523438 11.640625 -11.828125 10.765625 -12.234375 C 9.890625 -12.640625 9.238281 -12.945312 8.8125 -13.15625 C 7.0625 -14.019531 5.707031 -15.097656 4.75 -16.390625 C 3.800781 -17.691406 3.328125 -19.085938 3.328125 -20.578125 C 3.328125 -23.171875 4.28125 -25.289062 6.1875 -26.9375 C 8.101562 -28.582031 10.285156 -29.40625 12.734375 -29.40625 Z M 12.734375 -29.40625 "/></g></g></g><g fill="#2b2b2b" fill-opacity="1"><g transform="translate(199.582382, 44.02499)"><g><path d="M 8.6875 -28.875 L 8.6875 0 L 2.09375 0 L 2.09375 -28.875 Z M 8.6875 -28.875 "/></g></g></g><g fill="#2b2b2b" fill-opacity="1"><g transform="translate(207.90995, 44.02499)"><g><path d="M 8.6875 -17.921875 L 8.6875 0 L 2.09375 0 L 2.09375 -28.875 L 8.6875 -28.875 L 20.15625 -10.953125 L 20.234375 -10.953125 L 20.234375 -28.875 L 26.8125 -28.875 L 26.8125 0 L 20.234375 0 L 8.75 -17.921875 Z M 8.6875 -17.921875 "/></g></g></g><g fill="#2b2b2b" fill-opacity="1"><g transform="translate(24.471881, 80.024988)"><g><path d="M 16.765625 -28.875 L 28.421875 0 L 21.34375 0 L 19.21875 -5.78125 L 8.21875 -5.78125 L 6.09375 0 L -0.984375 0 L 10.671875 -28.875 Z M 16.96875 -11.546875 L 13.75 -19.953125 L 13.6875 -19.953125 L 10.46875 -11.546875 Z M 16.96875 -11.546875 "/></g></g></g><g fill="#2b2b2b" fill-opacity="1"><g transform="translate(49.455699, 80.024988)"><g><path d="M 17.46875 -5.953125 C 18.46875 -5.953125 19.441406 -6.101562 20.390625 -6.40625 C 21.335938 -6.707031 22.03125 -7 22.46875 -7.28125 L 23.140625 -7.734375 L 25.9375 -2.140625 C 25.84375 -2.066406 25.710938 -1.972656 25.546875 -1.859375 C 25.390625 -1.742188 25.007812 -1.523438 24.40625 -1.203125 C 23.8125 -0.890625 23.175781 -0.613281 22.5 -0.375 C 21.820312 -0.144531 20.9375 0.0625 19.84375 0.25 C 18.75 0.4375 17.617188 0.53125 16.453125 0.53125 C 13.765625 0.53125 11.21875 -0.128906 8.8125 -1.453125 C 6.414062 -2.773438 4.484375 -4.585938 3.015625 -6.890625 C 1.546875 -9.203125 0.8125 -11.703125 0.8125 -14.390625 C 0.8125 -16.421875 1.238281 -18.367188 2.09375 -20.234375 C 2.957031 -22.097656 4.109375 -23.691406 5.546875 -25.015625 C 6.984375 -26.347656 8.65625 -27.410156 10.5625 -28.203125 C 12.476562 -29.003906 14.441406 -29.40625 16.453125 -29.40625 C 18.316406 -29.40625 20.035156 -29.179688 21.609375 -28.734375 C 23.179688 -28.285156 24.296875 -27.84375 24.953125 -27.40625 L 25.9375 -26.734375 L 23.140625 -21.140625 C 22.972656 -21.273438 22.722656 -21.441406 22.390625 -21.640625 C 22.066406 -21.835938 21.414062 -22.097656 20.4375 -22.421875 C 19.457031 -22.753906 18.46875 -22.921875 17.46875 -22.921875 C 15.875 -22.921875 14.445312 -22.664062 13.1875 -22.15625 C 11.9375 -21.644531 10.941406 -20.96875 10.203125 -20.125 C 9.460938 -19.28125 8.898438 -18.375 8.515625 -17.40625 C 8.128906 -16.4375 7.9375 -15.453125 7.9375 -14.453125 C 7.9375 -12.265625 8.757812 -10.300781 10.40625 -8.5625 C 12.050781 -6.820312 14.40625 -5.953125 17.46875 -5.953125 Z M 17.46875 -5.953125 "/></g></g></g><g fill="#2b2b2b" fill-opacity="1"><g transform="translate(73.354756, 80.024988)"><g><path d="M 0.8125 -14.453125 C 0.8125 -18.628906 2.234375 -22.164062 5.078125 -25.0625 C 7.921875 -27.957031 11.347656 -29.40625 15.359375 -29.40625 C 19.398438 -29.40625 22.832031 -27.960938 25.65625 -25.078125 C 28.476562 -22.191406 29.890625 -18.648438 29.890625 -14.453125 C 29.890625 -10.234375 28.5 -6.679688 25.71875 -3.796875 C 22.945312 -0.910156 19.492188 0.53125 15.359375 0.53125 C 11.140625 0.53125 7.660156 -0.894531 4.921875 -3.75 C 2.179688 -6.613281 0.8125 -10.179688 0.8125 -14.453125 Z M 7.90625 -14.453125 C 7.90625 -12.941406 8.140625 -11.5625 8.609375 -10.3125 C 9.078125 -9.0625 9.894531 -8.003906 11.0625 -7.140625 C 12.226562 -6.273438 13.660156 -5.84375 15.359375 -5.84375 C 17.816406 -5.84375 19.664062 -6.679688 20.90625 -8.359375 C 22.15625 -10.046875 22.78125 -12.078125 22.78125 -14.453125 C 22.78125 -16.804688 22.144531 -18.828125 20.875 -20.515625 C 19.601562 -22.210938 17.765625 -23.0625 15.359375 -23.0625 C 12.984375 -23.0625 11.144531 -22.210938 9.84375 -20.515625 C 8.550781 -18.828125 7.90625 -16.804688 7.90625 -14.453125 Z M 7.90625 -14.453125 "/></g></g></g><g fill="#2b2b2b" fill-opacity="1"><g transform="translate(101.592839, 80.024988)"><g><path d="M 24.296875 -28.875 L 24.296875 -10.25 C 24.296875 -6.707031 23.335938 -4.023438 21.421875 -2.203125 C 19.503906 -0.378906 16.703125 0.53125 13.015625 0.53125 C 9.328125 0.53125 6.523438 -0.378906 4.609375 -2.203125 C 2.703125 -4.023438 1.75 -6.707031 1.75 -10.25 L 1.75 -28.875 L 8.328125 -28.875 L 8.328125 -12.1875 C 8.328125 -9.851562 8.691406 -8.226562 9.421875 -7.3125 C 10.160156 -6.40625 11.359375 -5.953125 13.015625 -5.953125 C 14.671875 -5.953125 15.863281 -6.40625 16.59375 -7.3125 C 17.332031 -8.226562 17.703125 -9.851562 17.703125 -12.1875 L 17.703125 -28.875 Z M 24.296875 -28.875 "/></g></g></g><g fill="#2b2b2b" fill-opacity="1"><g transform="translate(125.176965, 80.024988)"><g><path d="M 12.734375 -29.40625 C 14.296875 -29.40625 15.820312 -29.175781 17.3125 -28.71875 C 18.8125 -28.257812 19.925781 -27.8125 20.65625 -27.375 L 21.703125 -26.671875 L 19.046875 -21.421875 C 18.828125 -21.554688 18.53125 -21.734375 18.15625 -21.953125 C 17.789062 -22.179688 17.09375 -22.484375 16.0625 -22.859375 C 15.039062 -23.234375 14.082031 -23.421875 13.1875 -23.421875 C 12.09375 -23.421875 11.25 -23.1875 10.65625 -22.71875 C 10.0625 -22.25 9.765625 -21.617188 9.765625 -20.828125 C 9.765625 -20.429688 9.90625 -20.0625 10.1875 -19.71875 C 10.46875 -19.382812 10.945312 -19.023438 11.625 -18.640625 C 12.300781 -18.253906 12.894531 -17.941406 13.40625 -17.703125 C 13.914062 -17.472656 14.707031 -17.125 15.78125 -16.65625 C 17.644531 -15.863281 19.238281 -14.785156 20.5625 -13.421875 C 21.882812 -12.054688 22.546875 -10.507812 22.546875 -8.78125 C 22.546875 -7.125 22.242188 -5.675781 21.640625 -4.4375 C 21.046875 -3.207031 20.226562 -2.238281 19.1875 -1.53125 C 18.15625 -0.832031 17.007812 -0.316406 15.75 0.015625 C 14.488281 0.359375 13.125 0.53125 11.65625 0.53125 C 10.394531 0.53125 9.15625 0.398438 7.9375 0.140625 C 6.726562 -0.117188 5.710938 -0.441406 4.890625 -0.828125 C 4.078125 -1.210938 3.34375 -1.585938 2.6875 -1.953125 C 2.039062 -2.328125 1.566406 -2.644531 1.265625 -2.90625 L 0.8125 -3.296875 L 4.09375 -8.8125 C 4.375 -8.582031 4.757812 -8.285156 5.25 -7.921875 C 5.738281 -7.566406 6.609375 -7.082031 7.859375 -6.46875 C 9.109375 -5.863281 10.210938 -5.5625 11.171875 -5.5625 C 13.941406 -5.5625 15.328125 -6.507812 15.328125 -8.40625 C 15.328125 -8.800781 15.226562 -9.164062 15.03125 -9.5 C 14.832031 -9.84375 14.484375 -10.179688 13.984375 -10.515625 C 13.484375 -10.859375 13.039062 -11.128906 12.65625 -11.328125 C 12.269531 -11.523438 11.640625 -11.828125 10.765625 -12.234375 C 9.890625 -12.640625 9.238281 -12.945312 8.8125 -13.15625 C 7.0625 -14.019531 5.707031 -15.097656 4.75 -16.390625 C 3.800781 -17.691406 3.328125 -19.085938 3.328125 -20.578125 C 3.328125 -23.171875 4.28125 -25.289062 6.1875 -26.9375 C 8.101562 -28.582031 10.285156 -29.40625 12.734375 -29.40625 Z M 12.734375 -29.40625 "/></g></g></g><g fill="#2b2b2b" fill-opacity="1"><g transform="translate(146.241657, 80.024988)"><g><path d="M 0.28125 -23.09375 L 0.28125 -28.875 L 20.578125 -28.875 L 20.578125 -23.09375 L 13.71875 -23.09375 L 13.71875 0 L 7.140625 0 L 7.140625 -23.09375 Z M 0.28125 -23.09375 "/></g></g></g><g fill="#2b2b2b" fill-opacity="1"><g transform="translate(164.64696, 80.024988)"><g><path d="M 8.6875 -28.875 L 8.6875 0 L 2.09375 0 L 2.09375 -28.875 Z M 8.6875 -28.875 "/></g></g></g><g fill="#2b2b2b" fill-opacity="1"><g transform="translate(172.974527, 80.024988)"><g><path d="M 17.46875 -5.953125 C 18.46875 -5.953125 19.441406 -6.101562 20.390625 -6.40625 C 21.335938 -6.707031 22.03125 -7 22.46875 -7.28125 L 23.140625 -7.734375 L 25.9375 -2.140625 C 25.84375 -2.066406 25.710938 -1.972656 25.546875 -1.859375 C 25.390625 -1.742188 25.007812 -1.523438 24.40625 -1.203125 C 23.8125 -0.890625 23.175781 -0.613281 22.5 -0.375 C 21.820312 -0.144531 20.9375 0.0625 19.84375 0.25 C 18.75 0.4375 17.617188 0.53125 16.453125 0.53125 C 13.765625 0.53125 11.21875 -0.128906 8.8125 -1.453125 C 6.414062 -2.773438 4.484375 -4.585938 3.015625 -6.890625 C 1.546875 -9.203125 0.8125 -11.703125 0.8125 -14.390625 C 0.8125 -16.421875 1.238281 -18.367188 2.09375 -20.234375 C 2.957031 -22.097656 4.109375 -23.691406 5.546875 -25.015625 C 6.984375 -26.347656 8.65625 -27.410156 10.5625 -28.203125 C 12.476562 -29.003906 14.441406 -29.40625 16.453125 -29.40625 C 18.316406 -29.40625 20.035156 -29.179688 21.609375 -28.734375 C 23.179688 -28.285156 24.296875 -27.84375 24.953125 -27.40625 L 25.9375 -26.734375 L 23.140625 -21.140625 C 22.972656 -21.273438 22.722656 -21.441406 22.390625 -21.640625 C 22.066406 -21.835938 21.414062 -22.097656 20.4375 -22.421875 C 19.457031 -22.753906 18.46875 -22.921875 17.46875 -22.921875 C 15.875 -22.921875 14.445312 -22.664062 13.1875 -22.15625 C 11.9375 -21.644531 10.941406 -20.96875 10.203125 -20.125 C 9.460938 -19.28125 8.898438 -18.375 8.515625 -17.40625 C 8.128906 -16.4375 7.9375 -15.453125 7.9375 -14.453125 C 7.9375 -12.265625 8.757812 -10.300781 10.40625 -8.5625 C 12.050781 -6.820312 14.40625 -5.953125 17.46875 -5.953125 Z M 17.46875 -5.953125 "/></g></g></g><g fill="#2b2b2b" fill-opacity="1"><g transform="translate(196.873589, 80.024988)"><g><path d="M 12.734375 -29.40625 C 14.296875 -29.40625 15.820312 -29.175781 17.3125 -28.71875 C 18.8125 -28.257812 19.925781 -27.8125 20.65625 -27.375 L 21.703125 -26.671875 L 19.046875 -21.421875 C 18.828125 -21.554688 18.53125 -21.734375 18.15625 -21.953125 C 17.789062 -22.179688 17.09375 -22.484375 16.0625 -22.859375 C 15.039062 -23.234375 14.082031 -23.421875 13.1875 -23.421875 C 12.09375 -23.421875 11.25 -23.1875 10.65625 -22.71875 C 10.0625 -22.25 9.765625 -21.617188 9.765625 -20.828125 C 9.765625 -20.429688 9.90625 -20.0625 10.1875 -19.71875 C 10.46875 -19.382812 10.945312 -19.023438 11.625 -18.640625 C 12.300781 -18.253906 12.894531 -17.941406 13.40625 -17.703125 C 13.914062 -17.472656 14.707031 -17.125 15.78125 -16.65625 C 17.644531 -15.863281 19.238281 -14.785156 20.5625 -13.421875 C 21.882812 -12.054688 22.546875 -10.507812 22.546875 -8.78125 C 22.546875 -7.125 22.242188 -5.675781 21.640625 -4.4375 C 21.046875 -3.207031 20.226562 -2.238281 19.1875 -1.53125 C 18.15625 -0.832031 17.007812 -0.316406 15.75 0.015625 C 14.488281 0.359375 13.125 0.53125 11.65625 0.53125 C 10.394531 0.53125 9.15625 0.398438 7.9375 0.140625 C 6.726562 -0.117188 5.710938 -0.441406 4.890625 -0.828125 C 4.078125 -1.210938 3.34375 -1.585938 2.6875 -1.953125 C 2.039062 -2.328125 1.566406 -2.644531 1.265625 -2.90625 L 0.8125 -3.296875 L 4.09375 -8.8125 C 4.375 -8.582031 4.757812 -8.285156 5.25 -7.921875 C 5.738281 -7.566406 6.609375 -7.082031 7.859375 -6.46875 C 9.109375 -5.863281 10.210938 -5.5625 11.171875 -5.5625 C 13.941406 -5.5625 15.328125 -6.507812 15.328125 -8.40625 C 15.328125 -8.800781 15.226562 -9.164062 15.03125 -9.5 C 14.832031 -9.84375 14.484375 -10.179688 13.984375 -10.515625 C 13.484375 -10.859375 13.039062 -11.128906 12.65625 -11.328125 C 12.269531 -11.523438 11.640625 -11.828125 10.765625 -12.234375 C 9.890625 -12.640625 9.238281 -12.945312 8.8125 -13.15625 C 7.0625 -14.019531 5.707031 -15.097656 4.75 -16.390625 C 3.800781 -17.691406 3.328125 -19.085938 3.328125 -20.578125 C 3.328125 -23.171875 4.28125 -25.289062 6.1875 -26.9375 C 8.101562 -28.582031 10.285156 -29.40625 12.734375 -29.40625 Z M 12.734375 -29.40625 "/></g></g></g><g fill="#2b2b2b" fill-opacity="1"><g transform="translate(217.948432, 80.024988)"><g/></g></g><g clip-path="url(#5225df86fc)"><path fill="#000000" d="M 82.242188 110.230469 Z M 135.644531 127.644531 C 134.773438 127.644531 134.554688 126.535156 134.414062 125.496094 C 134.246094 124.238281 134.140625 122.292969 133.980469 119.355469 C 133.84375 116.859375 133.675781 113.753906 133.398438 109.816406 C 133.226562 107.359375 133.066406 104.371094 132.90625 101.484375 C 132.71875 97.960938 132.519531 94.316406 132.296875 91.507812 C 132.128906 89.367188 131.976562 88.125 131.855469 87.402344 C 131.734375 88.113281 131.585938 89.324219 131.421875 91.398438 C 131.199219 94.1875 130.996094 97.78125 130.78125 101.589844 C 130.507812 106.457031 130.222656 111.492188 129.867188 115.359375 C 129.675781 117.464844 129.480469 119.019531 129.273438 120.113281 C 128.972656 121.695312 128.65625 122.285156 128.105469 122.296875 C 128.101562 122.296875 128.097656 122.296875 128.09375 122.296875 C 126.957031 122.296875 126.484375 119.84375 125.457031 111.484375 C 125.179688 109.210938 124.917969 107.066406 124.632812 105.359375 C 124.324219 103.515625 124.085938 102.796875 123.949219 102.515625 C 123.820312 102.742188 123.601562 103.304688 123.351562 104.707031 C 123.117188 106.03125 122.929688 107.648438 122.75 109.210938 C 122.605469 110.4375 122.472656 111.601562 122.328125 112.453125 C 122.160156 113.476562 121.996094 114.203125 121.433594 114.203125 C 121.433594 114.203125 121.429688 114.203125 121.429688 114.203125 C 120.664062 114.199219 120.441406 113.117188 120.128906 111.617188 C 119.976562 110.886719 119.824219 110.132812 119.613281 109.570312 C 119.414062 109.039062 119.226562 108.847656 119.125 108.847656 C 119.109375 108.855469 118.683594 109.007812 118.253906 111.488281 C 117.972656 113.113281 117.78125 115.148438 117.59375 117.113281 C 117.449219 118.636719 117.316406 120.078125 117.152344 121.136719 C 116.941406 122.488281 116.714844 123.222656 116.117188 123.222656 C 116.113281 123.222656 116.105469 123.222656 116.101562 123.222656 C 115.601562 123.210938 115.390625 122.667969 115.191406 121.726562 C 115.042969 121.03125 114.898438 120.039062 114.746094 118.695312 C 114.464844 116.214844 114.203125 112.871094 113.949219 109.640625 C 113.714844 106.679688 113.476562 103.617188 113.226562 101.273438 C 113.023438 99.398438 112.855469 98.347656 112.726562 97.761719 C 112.644531 98.136719 112.546875 98.703125 112.433594 99.554688 C 112.25 100.957031 112.074219 102.761719 111.890625 104.671875 C 111.625 107.363281 111.355469 110.148438 111.015625 112.328125 C 110.492188 115.683594 109.988281 116.375 109.347656 116.40625 C 109.335938 116.40625 109.324219 116.40625 109.3125 116.40625 C 108.410156 116.40625 108 114.847656 107.300781 111.894531 C 107.0625 110.878906 106.8125 109.832031 106.550781 109.019531 C 106.25 108.078125 106.035156 107.796875 105.949219 107.71875 C 105.839844 107.828125 105.515625 108.289062 105.113281 110.195312 C 104.800781 111.664062 104.535156 113.5 104.28125 115.273438 C 104.0625 116.765625 103.859375 118.171875 103.648438 119.21875 C 103.378906 120.558594 103.125 121.28125 102.539062 121.269531 C 101.578125 121.257812 101.222656 119.453125 100.292969 109.910156 C 100.0625 107.539062 99.84375 105.300781 99.609375 103.511719 C 99.421875 102.078125 99.261719 101.28125 99.148438 100.84375 C 98.878906 101.835938 98.585938 103.941406 98.355469 105.574219 C 97.542969 111.394531 97.023438 114.144531 95.785156 114.203125 C 95.773438 114.203125 95.761719 114.203125 95.746094 114.203125 C 94.808594 114.203125 94.382812 112.589844 93.65625 109.535156 C 93.421875 108.5625 93.183594 107.550781 92.9375 106.773438 C 92.671875 105.941406 92.480469 105.640625 92.390625 105.535156 C 92.257812 105.695312 91.949219 106.273438 91.578125 108.335938 C 91.28125 109.980469 91.03125 112.050781 90.792969 114.054688 C 90.101562 119.761719 89.835938 121.210938 88.988281 121.21875 C 88.984375 121.21875 88.984375 121.21875 88.980469 121.21875 C 87.984375 121.21875 87.6875 119.183594 87.035156 111.140625 C 86.871094 109.121094 86.71875 107.214844 86.539062 105.691406 C 86.40625 104.515625 86.28125 103.84375 86.191406 103.457031 C 85.992188 104.226562 85.828125 105.734375 85.710938 106.8125 C 85.332031 110.367188 85.035156 112.546875 83.855469 112.546875 C 82.761719 112.546875 82.503906 111.457031 82.347656 110.804688 C 82.304688 110.617188 82.238281 110.339844 82.179688 110.230469 L 76.066406 110.226562 C 75.820312 110.226562 75.621094 110.027344 75.621094 109.78125 C 75.621094 109.535156 75.820312 109.335938 76.066406 109.335938 L 82.242188 109.335938 C 82.917969 109.335938 83.082031 110.035156 83.214844 110.597656 C 83.410156 111.417969 83.539062 111.644531 83.839844 111.652344 C 83.886719 111.613281 84.136719 111.371094 84.386719 110.070312 C 84.570312 109.109375 84.699219 107.894531 84.828125 106.71875 C 85.167969 103.550781 85.355469 102.148438 86.230469 102.148438 C 86.824219 102.148438 87.082031 102.828125 87.375 105.167969 C 87.574219 106.761719 87.742188 108.851562 87.921875 111.066406 C 88.097656 113.234375 88.277344 115.46875 88.492188 117.226562 C 88.679688 118.789062 88.851562 119.582031 88.976562 119.984375 C 89.066406 119.683594 89.191406 119.164062 89.335938 118.273438 C 89.53125 117.078125 89.714844 115.554688 89.90625 113.945312 C 90.167969 111.800781 90.433594 109.585938 90.761719 107.867188 C 91.199219 105.550781 91.648438 104.632812 92.355469 104.601562 C 93.339844 104.550781 93.773438 106.191406 94.519531 109.328125 C 94.75 110.289062 94.984375 111.28125 95.226562 112.046875 C 95.492188 112.894531 95.683594 113.183594 95.765625 113.277344 C 95.890625 113.160156 96.222656 112.675781 96.632812 110.722656 C 96.953125 109.191406 97.21875 107.289062 97.472656 105.449219 C 98.148438 100.632812 98.382812 99.496094 99.152344 99.496094 C 99.15625 99.496094 99.15625 99.496094 99.160156 99.496094 C 100.03125 99.503906 100.3125 100.949219 101.179688 109.820312 C 101.417969 112.296875 101.667969 114.859375 101.9375 116.855469 C 102.1875 118.707031 102.398438 119.609375 102.539062 120.042969 C 102.828125 119.105469 103.152344 116.863281 103.398438 115.144531 C 104.230469 109.378906 104.722656 106.847656 105.921875 106.804688 C 106.949219 106.765625 107.421875 108.542969 108.167969 111.6875 C 108.394531 112.65625 108.613281 113.570312 108.839844 114.300781 C 109.0625 115.011719 109.226562 115.316406 109.3125 115.441406 C 109.46875 115.210938 109.804688 114.433594 110.191406 111.824219 C 110.5 109.722656 110.757812 107.109375 111.003906 104.582031 C 111.207031 102.484375 111.402344 100.503906 111.605469 99.035156 C 111.910156 96.882812 112.15625 96.261719 112.710938 96.25 C 113.265625 96.242188 113.46875 96.964844 113.621094 97.707031 C 113.765625 98.382812 113.90625 99.351562 114.054688 100.667969 C 114.328125 103.09375 114.585938 106.386719 114.835938 109.570312 C 115.074219 112.582031 115.320312 115.699219 115.578125 118.097656 C 115.800781 120.171875 115.988281 121.257812 116.125 121.824219 C 116.355469 120.792969 116.554688 118.675781 116.707031 117.03125 C 117.289062 110.863281 117.71875 107.957031 119.125 107.957031 C 120.28125 107.957031 120.648438 109.722656 121 111.433594 C 121.09375 111.882812 121.21875 112.480469 121.34375 112.894531 C 121.523438 112.058594 121.707031 110.457031 121.863281 109.109375 C 122.472656 103.847656 122.855469 101.539062 123.957031 101.5 C 124.984375 101.464844 125.371094 103.453125 126.339844 111.375 C 126.632812 113.742188 126.933594 116.195312 127.257812 118.097656 C 127.613281 120.148438 127.894531 120.941406 128.058594 121.246094 C 128.15625 121.003906 128.316406 120.488281 128.492188 119.40625 C 128.679688 118.265625 128.855469 116.726562 129.035156 114.691406 C 129.363281 110.917969 129.632812 106.148438 129.894531 101.539062 C 130.121094 97.472656 130.339844 93.632812 130.582031 90.769531 C 130.710938 89.226562 130.835938 88.09375 130.96875 87.304688 C 131.144531 86.230469 131.339844 85.652344 131.847656 85.652344 C 132.367188 85.652344 132.5625 86.25 132.746094 87.351562 C 132.882812 88.160156 133.011719 89.316406 133.140625 90.882812 C 133.382812 93.777344 133.59375 97.671875 133.796875 101.4375 C 133.953125 104.320312 134.113281 107.300781 134.285156 109.753906 C 134.5625 113.699219 134.730469 116.808594 134.867188 119.304688 C 135.007812 121.871094 135.109375 123.726562 135.246094 124.960938 C 135.335938 125.785156 135.4375 126.234375 135.519531 126.476562 C 135.625 126.050781 135.785156 125.179688 135.988281 123.414062 C 136.214844 121.480469 136.4375 118.984375 136.675781 116.34375 C 137 112.742188 137.335938 109.015625 137.71875 106.121094 C 138.304688 101.675781 138.761719 100.855469 139.445312 100.84375 C 139.449219 100.84375 139.453125 100.84375 139.460938 100.84375 C 140.527344 100.84375 140.894531 102.824219 141.597656 108.035156 C 141.808594 109.582031 142.023438 111.183594 142.269531 112.417969 C 142.539062 113.78125 142.761719 114.269531 142.878906 114.445312 C 143.03125 114.214844 143.363281 113.460938 143.785156 111.011719 C 144.128906 109.011719 144.433594 106.496094 144.734375 104.066406 C 145.628906 96.71875 145.910156 95.523438 146.714844 95.519531 C 147.246094 95.519531 147.425781 96.191406 147.574219 96.9375 C 147.703125 97.589844 147.832031 98.523438 147.96875 99.792969 C 148.21875 102.140625 148.457031 105.253906 148.710938 108.546875 C 148.972656 111.96875 149.242188 115.507812 149.539062 118.285156 C 149.839844 121.078125 150.089844 122.320312 150.261719 122.871094 C 150.375 122.515625 150.539062 121.859375 150.738281 120.648438 C 150.984375 119.164062 151.222656 117.292969 151.472656 115.308594 C 152.492188 107.226562 152.957031 104.875 154.074219 104.875 C 154.988281 104.878906 155.34375 106.371094 156.0625 110.328125 C 156.328125 111.78125 156.710938 113.886719 157.042969 114.582031 C 157.160156 114.316406 157.351562 113.722656 157.574219 112.394531 C 157.800781 111.050781 158.003906 109.367188 158.195312 107.738281 C 158.378906 106.179688 158.554688 104.707031 158.742188 103.597656 C 158.996094 102.117188 159.214844 101.414062 159.792969 101.414062 C 159.792969 101.414062 159.792969 101.414062 159.796875 101.414062 C 160.320312 101.414062 160.5 102.066406 160.585938 102.378906 C 160.695312 102.78125 160.804688 103.355469 160.914062 104.132812 C 161.117188 105.554688 161.300781 107.429688 161.492188 109.417969 C 161.6875 111.414062 161.886719 113.480469 162.117188 115.113281 C 162.28125 116.269531 162.425781 116.96875 162.539062 117.394531 C 162.703125 116.320312 162.84375 114.324219 162.957031 112.757812 C 163.40625 106.429688 163.660156 104.714844 164.597656 104.714844 C 165.289062 104.714844 165.496094 105.667969 166.046875 108.683594 C 166.246094 109.789062 166.605469 111.742188 166.894531 112.355469 C 167.050781 112.105469 167.230469 111.519531 167.324219 111.207031 C 167.601562 110.285156 167.890625 109.335938 168.664062 109.335938 L 175.632812 109.335938 C 175.878906 109.335938 176.078125 109.535156 176.078125 109.78125 C 176.078125 110.027344 175.878906 110.226562 175.632812 110.226562 L 168.683594 110.226562 C 168.511719 110.347656 168.292969 111.074219 168.175781 111.46875 C 167.898438 112.375 167.613281 113.3125 166.867188 113.355469 C 166.074219 113.402344 165.785156 112.21875 165.171875 108.84375 C 165.007812 107.949219 164.78125 106.710938 164.582031 106.019531 C 164.488281 106.375 164.367188 106.992188 164.246094 108.0625 C 164.085938 109.449219 163.960938 111.164062 163.84375 112.824219 C 163.738281 114.316406 163.636719 115.722656 163.519531 116.773438 C 163.351562 118.253906 163.191406 118.878906 162.644531 118.878906 C 162.640625 118.878906 162.636719 118.878906 162.632812 118.878906 C 161.996094 118.867188 161.65625 118.050781 161.292969 115.640625 C 161.039062 113.933594 160.820312 111.679688 160.609375 109.503906 C 160.433594 107.703125 160.269531 106.003906 160.085938 104.648438 C 159.972656 103.789062 159.871094 103.230469 159.789062 102.867188 C 159.539062 103.960938 159.28125 106.144531 159.078125 107.84375 C 158.363281 113.871094 158.011719 115.625 157.058594 115.640625 C 157.054688 115.640625 157.050781 115.640625 157.046875 115.640625 C 156.199219 115.640625 155.878906 114.296875 155.1875 110.488281 C 154.984375 109.367188 154.773438 108.210938 154.550781 107.308594 C 154.335938 106.429688 154.167969 106.039062 154.070312 105.871094 C 153.917969 106.128906 153.628906 106.871094 153.257812 108.984375 C 152.933594 110.820312 152.640625 113.160156 152.355469 115.417969 C 152.082031 117.59375 151.820312 119.644531 151.546875 121.195312 C 151.160156 123.398438 150.847656 124.109375 150.257812 124.109375 C 150.253906 124.109375 150.253906 124.109375 150.253906 124.109375 C 149.707031 124.109375 149.457031 123.464844 149.234375 122.429688 C 149.0625 121.621094 148.890625 120.46875 148.714844 118.914062 C 148.390625 116.046875 148.101562 112.269531 147.820312 108.613281 C 147.589844 105.550781 147.367188 102.660156 147.132812 100.382812 C 146.949219 98.585938 146.796875 97.574219 146.679688 97.007812 C 146.582031 97.390625 146.457031 97.984375 146.3125 98.914062 C 146.082031 100.363281 145.855469 102.214844 145.617188 104.171875 C 144.570312 112.722656 144.058594 115.390625 142.894531 115.410156 C 142.890625 115.410156 142.886719 115.410156 142.878906 115.410156 C 141.800781 115.410156 141.425781 113.410156 140.71875 108.152344 C 140.511719 106.621094 140.296875 105.035156 140.054688 103.8125 C 139.8125 102.578125 139.609375 102.066406 139.488281 101.855469 C 139.308594 102.226562 138.964844 103.347656 138.539062 106.730469 C 138.183594 109.535156 137.867188 113.039062 137.5625 116.425781 C 137.304688 119.28125 137.0625 121.980469 136.820312 123.980469 C 136.6875 125.058594 136.566406 125.851562 136.449219 126.402344 C 136.308594 127.058594 136.140625 127.644531 135.644531 127.644531 " fill-opacity="1" fill-rule="nonzero"/></g></svg>