<svg xmlns="http://www.w3.org/2000/svg" xmlns:xlink="http://www.w3.org/1999/xlink" width="336" zoomAndPan="magnify" viewBox="0 0 252 143.999998" height="192" preserveAspectRatio="xMidYMid meet" version="1.0"><defs><g/><clipPath id="ad85b25619"><path d="M 78 69.101562 L 174 69.101562 L 174 75.101562 L 78 75.101562 Z M 78 69.101562 " clip-rule="nonzero"/></clipPath></defs><g clip-path="url(#ad85b25619)"><path fill="#000000" d="M 135.855469 69.101562 C 135.027344 69.117188 134.234375 69.398438 133.523438 69.796875 C 132.816406 70.195312 132.1875 70.707031 131.582031 71.222656 C 130.976562 71.734375 130.390625 72.257812 129.757812 72.691406 C 129.128906 73.128906 128.445312 73.480469 127.726562 73.632812 C 126.496094 73.894531 125.191406 73.566406 123.96875 73.078125 C 122.746094 72.59375 121.550781 71.941406 120.230469 71.578125 C 118.933594 71.222656 117.550781 71.164062 116.234375 71.472656 C 114.523438 71.878906 113.042969 72.859375 111.523438 73.589844 C 110.761719 73.957031 109.976562 74.265625 109.171875 74.417969 C 108.367188 74.566406 107.53125 74.554688 106.773438 74.292969 C 105.664062 73.910156 104.730469 73 103.582031 72.390625 C 102.507812 71.820312 101.300781 71.570312 100.109375 71.5625 C 98.917969 71.550781 97.742188 71.773438 96.609375 72.109375 C 95.347656 72.480469 94.148438 72.984375 92.917969 73.324219 C 91.691406 73.664062 90.410156 73.839844 89.203125 73.566406 C 88.339844 73.371094 87.523438 72.945312 86.707031 72.5 C 85.890625 72.050781 85.0625 71.574219 84.140625 71.289062 C 82.207031 70.691406 80.035156 71.0625 78.390625 72.269531 L 78.667969 72.683594 C 80.1875 71.566406 82.21875 71.21875 84.003906 71.769531 C 84.855469 72.035156 85.660156 72.492188 86.480469 72.945312 C 87.300781 73.394531 88.15625 73.847656 89.101562 74.058594 C 90.417969 74.359375 91.777344 74.164062 93.046875 73.8125 C 94.3125 73.460938 95.515625 72.953125 96.742188 72.59375 C 97.84375 72.269531 98.976562 72.058594 100.105469 72.066406 C 101.238281 72.074219 102.371094 72.308594 103.363281 72.839844 C 104.425781 73.402344 105.375 74.34375 106.621094 74.769531 C 107.472656 75.0625 108.390625 75.074219 109.257812 74.910156 C 110.125 74.75 110.941406 74.425781 111.722656 74.050781 C 113.285156 73.300781 114.738281 72.347656 116.339844 71.96875 C 117.574219 71.675781 118.878906 71.726562 120.109375 72.066406 C 121.355469 72.410156 122.539062 73.050781 123.796875 73.550781 C 125.054688 74.050781 126.449219 74.417969 127.824219 74.128906 C 128.625 73.957031 129.363281 73.574219 130.027344 73.113281 C 130.691406 72.65625 131.289062 72.121094 131.890625 71.613281 C 132.488281 71.101562 133.09375 70.613281 133.753906 70.242188 C 134.414062 69.871094 135.136719 69.621094 135.863281 69.605469 C 136.566406 69.59375 137.273438 69.800781 137.925781 70.121094 C 138.582031 70.445312 139.195312 70.878906 139.800781 71.335938 C 140.40625 71.789062 141.011719 72.265625 141.675781 72.671875 C 142.339844 73.074219 143.070312 73.40625 143.851562 73.535156 C 145.328125 73.777344 146.789062 73.273438 148.09375 72.65625 C 149.398438 72.042969 150.628906 71.308594 151.960938 70.964844 C 153.140625 70.664062 154.390625 70.675781 155.609375 70.875 C 156.828125 71.074219 158.019531 71.457031 159.199219 71.886719 C 161.558594 72.746094 163.9375 73.824219 166.503906 73.976562 C 168.917969 74.125 171.363281 73.402344 173.347656 71.96875 L 173.070312 71.554688 C 171.179688 72.925781 168.832031 73.613281 166.53125 73.472656 C 164.078125 73.328125 161.742188 72.28125 159.359375 71.410156 C 158.167969 70.976562 156.949219 70.582031 155.683594 70.378906 C 154.417969 70.171875 153.105469 70.15625 151.84375 70.476562 C 150.425781 70.839844 149.167969 71.597656 147.894531 72.199219 C 146.621094 72.796875 145.25 73.253906 143.929688 73.039062 C 143.226562 72.925781 142.554688 72.621094 141.921875 72.234375 C 141.289062 71.851562 140.695312 71.382812 140.085938 70.925781 C 139.472656 70.46875 138.835938 70.015625 138.136719 69.667969 C 137.433594 69.324219 136.65625 69.085938 135.855469 69.101562 Z M 135.855469 69.101562 " fill-opacity="1" fill-rule="nonzero"/></g><g fill="#000000" fill-opacity="1"><g transform="translate(57.823718, 26.28345)"><g><path d="M 6.703125 -11.546875 L 11.375 0 L 8.546875 0 L 7.6875 -2.3125 L 3.296875 -2.3125 L 2.4375 0 L -0.390625 0 L 4.265625 -11.546875 Z M 6.796875 -4.625 L 5.5 -7.984375 L 5.46875 -7.984375 L 4.1875 -4.625 Z M 6.796875 -4.625 "/></g></g></g><g fill="#000000" fill-opacity="1"><g transform="translate(67.81269, 26.28345)"><g><path d="M 3.46875 -7.171875 L 3.46875 0 L 0.84375 0 L 0.84375 -11.546875 L 3.46875 -11.546875 L 8.0625 -4.375 L 8.09375 -4.375 L 8.09375 -11.546875 L 10.71875 -11.546875 L 10.71875 0 L 8.09375 0 L 3.5 -7.171875 Z M 3.46875 -7.171875 "/></g></g></g><g fill="#000000" fill-opacity="1"><g transform="translate(78.389292, 26.28345)"><g><path d="M 0.84375 -11.546875 L 4.1875 -11.546875 C 5.789062 -11.546875 7.160156 -11 8.296875 -9.90625 C 9.441406 -8.8125 10.015625 -7.4375 10.015625 -5.78125 C 10.015625 -4.125 9.445312 -2.742188 8.3125 -1.640625 C 7.175781 -0.546875 5.800781 0 4.1875 0 L 0.84375 0 Z M 3.46875 -2.359375 L 3.875 -2.359375 C 4.832031 -2.359375 5.617188 -2.679688 6.234375 -3.328125 C 6.847656 -3.972656 7.160156 -4.785156 7.171875 -5.765625 C 7.171875 -6.742188 6.863281 -7.5625 6.25 -8.21875 C 5.632812 -8.875 4.84375 -9.203125 3.875 -9.203125 L 3.46875 -9.203125 Z M 3.46875 -2.359375 "/></g></g></g><g fill="#000000" fill-opacity="1"><g transform="translate(87.734679, 26.28345)"><g><path d="M 0.84375 -11.546875 L 4.96875 -11.546875 C 6.082031 -11.546875 6.988281 -11.25 7.6875 -10.65625 C 8.382812 -10.0625 8.734375 -9.21875 8.734375 -8.125 C 8.734375 -7.269531 8.519531 -6.554688 8.09375 -5.984375 C 7.675781 -5.410156 7.101562 -5.007812 6.375 -4.78125 L 10.34375 0 L 7 0 L 3.46875 -4.5625 L 3.46875 0 L 0.84375 0 Z M 3.46875 -6.421875 L 3.78125 -6.421875 C 4.019531 -6.421875 4.222656 -6.425781 4.390625 -6.4375 C 4.554688 -6.445312 4.75 -6.476562 4.96875 -6.53125 C 5.1875 -6.59375 5.359375 -6.675781 5.484375 -6.78125 C 5.617188 -6.882812 5.734375 -7.03125 5.828125 -7.21875 C 5.921875 -7.414062 5.96875 -7.65625 5.96875 -7.9375 C 5.96875 -8.21875 5.921875 -8.457031 5.828125 -8.65625 C 5.734375 -8.851562 5.617188 -9 5.484375 -9.09375 C 5.359375 -9.195312 5.1875 -9.273438 4.96875 -9.328125 C 4.75 -9.390625 4.554688 -9.425781 4.390625 -9.4375 C 4.222656 -9.445312 4.019531 -9.453125 3.78125 -9.453125 L 3.46875 -9.453125 Z M 3.46875 -6.421875 "/></g></g></g><g fill="#000000" fill-opacity="1"><g transform="translate(96.772264, 26.28345)"><g><path d="M 7.453125 -11.546875 L 7.453125 -9.234375 L 3.46875 -9.234375 L 3.46875 -6.9375 L 7.28125 -6.9375 L 7.28125 -4.640625 L 3.46875 -4.640625 L 3.46875 -2.3125 L 7.453125 -2.3125 L 7.453125 0 L 0.84375 0 L 0.84375 -11.546875 Z M 7.453125 -11.546875 "/></g></g></g><g fill="#000000" fill-opacity="1"><g transform="translate(103.907064, 26.28345)"><g><path d="M 9.703125 0 L 7.859375 -6.484375 L 6 0 L 3.078125 0 L -0.203125 -11.546875 L 2.71875 -11.546875 L 4.6875 -3.625 L 4.765625 -3.625 L 6.859375 -11.546875 L 8.84375 -11.546875 L 10.953125 -3.625 L 11.015625 -3.625 L 12.984375 -11.546875 L 15.90625 -11.546875 L 12.609375 0 Z M 9.703125 0 "/></g></g></g><g fill="#000000" fill-opacity="1"><g transform="translate(118.611023, 26.28345)"><g/></g></g><g fill="#000000" fill-opacity="1"><g transform="translate(121.450574, 26.28345)"><g><path d="M 11.28125 -6.46875 L 11.28125 -3.96875 C 10.988281 -2.59375 10.335938 -1.550781 9.328125 -0.84375 C 8.316406 -0.144531 7.191406 0.203125 5.953125 0.203125 C 4.390625 0.203125 3.0625 -0.378906 1.96875 -1.546875 C 0.875 -2.710938 0.328125 -4.117188 0.328125 -5.765625 C 0.328125 -7.441406 0.863281 -8.859375 1.9375 -10.015625 C 3.007812 -11.179688 4.347656 -11.765625 5.953125 -11.765625 C 7.828125 -11.765625 9.3125 -11.101562 10.40625 -9.78125 L 8.6875 -7.890625 C 8.0625 -8.878906 7.203125 -9.375 6.109375 -9.375 C 5.296875 -9.375 4.597656 -9.019531 4.015625 -8.3125 C 3.441406 -7.613281 3.15625 -6.765625 3.15625 -5.765625 C 3.15625 -4.785156 3.441406 -3.945312 4.015625 -3.25 C 4.597656 -2.5625 5.296875 -2.21875 6.109375 -2.21875 C 6.773438 -2.21875 7.359375 -2.421875 7.859375 -2.828125 C 8.359375 -3.234375 8.609375 -3.769531 8.609375 -4.4375 L 5.953125 -4.4375 L 5.953125 -6.46875 Z M 11.28125 -6.46875 "/></g></g></g><g fill="#000000" fill-opacity="1"><g transform="translate(132.069146, 26.28345)"><g><path d="M 0.328125 -5.78125 C 0.328125 -7.445312 0.894531 -8.859375 2.03125 -10.015625 C 3.164062 -11.179688 4.535156 -11.765625 6.140625 -11.765625 C 7.753906 -11.765625 9.125 -11.1875 10.25 -10.03125 C 11.382812 -8.875 11.953125 -7.457031 11.953125 -5.78125 C 11.953125 -4.09375 11.394531 -2.671875 10.28125 -1.515625 C 9.175781 -0.367188 7.796875 0.203125 6.140625 0.203125 C 4.453125 0.203125 3.0625 -0.363281 1.96875 -1.5 C 0.875 -2.644531 0.328125 -4.070312 0.328125 -5.78125 Z M 3.15625 -5.78125 C 3.15625 -5.175781 3.25 -4.625 3.4375 -4.125 C 3.625 -3.625 3.953125 -3.203125 4.421875 -2.859375 C 4.890625 -2.515625 5.460938 -2.34375 6.140625 -2.34375 C 7.117188 -2.34375 7.859375 -2.675781 8.359375 -3.34375 C 8.859375 -4.019531 9.109375 -4.832031 9.109375 -5.78125 C 9.109375 -6.726562 8.851562 -7.535156 8.34375 -8.203125 C 7.84375 -8.878906 7.109375 -9.21875 6.140625 -9.21875 C 5.191406 -9.21875 4.457031 -8.878906 3.9375 -8.203125 C 3.414062 -7.535156 3.15625 -6.726562 3.15625 -5.78125 Z M 3.15625 -5.78125 "/></g></g></g><g fill="#000000" fill-opacity="1"><g transform="translate(143.359289, 26.28345)"><g><path d="M 3.46875 -11.546875 L 3.46875 -2.3125 L 7.453125 -2.3125 L 7.453125 0 L 0.84375 0 L 0.84375 -11.546875 Z M 3.46875 -11.546875 "/></g></g></g><g fill="#000000" fill-opacity="1"><g transform="translate(150.284228, 26.28345)"><g><path d="M 0.84375 -11.546875 L 4.1875 -11.546875 C 5.789062 -11.546875 7.160156 -11 8.296875 -9.90625 C 9.441406 -8.8125 10.015625 -7.4375 10.015625 -5.78125 C 10.015625 -4.125 9.445312 -2.742188 8.3125 -1.640625 C 7.175781 -0.546875 5.800781 0 4.1875 0 L 0.84375 0 Z M 3.46875 -2.359375 L 3.875 -2.359375 C 4.832031 -2.359375 5.617188 -2.679688 6.234375 -3.328125 C 6.847656 -3.972656 7.160156 -4.785156 7.171875 -5.765625 C 7.171875 -6.742188 6.863281 -7.5625 6.25 -8.21875 C 5.632812 -8.875 4.84375 -9.203125 3.875 -9.203125 L 3.46875 -9.203125 Z M 3.46875 -2.359375 "/></g></g></g><g fill="#000000" fill-opacity="1"><g transform="translate(159.629618, 26.28345)"><g><path d="M 0.84375 -11.546875 L 4.96875 -11.546875 C 6.082031 -11.546875 6.988281 -11.25 7.6875 -10.65625 C 8.382812 -10.0625 8.734375 -9.21875 8.734375 -8.125 C 8.734375 -7.269531 8.519531 -6.554688 8.09375 -5.984375 C 7.675781 -5.410156 7.101562 -5.007812 6.375 -4.78125 L 10.34375 0 L 7 0 L 3.46875 -4.5625 L 3.46875 0 L 0.84375 0 Z M 3.46875 -6.421875 L 3.78125 -6.421875 C 4.019531 -6.421875 4.222656 -6.425781 4.390625 -6.4375 C 4.554688 -6.445312 4.75 -6.476562 4.96875 -6.53125 C 5.1875 -6.59375 5.359375 -6.675781 5.484375 -6.78125 C 5.617188 -6.882812 5.734375 -7.03125 5.828125 -7.21875 C 5.921875 -7.414062 5.96875 -7.65625 5.96875 -7.9375 C 5.96875 -8.21875 5.921875 -8.457031 5.828125 -8.65625 C 5.734375 -8.851562 5.617188 -9 5.484375 -9.09375 C 5.359375 -9.195312 5.1875 -9.273438 4.96875 -9.328125 C 4.75 -9.390625 4.554688 -9.425781 4.390625 -9.4375 C 4.222656 -9.445312 4.019531 -9.453125 3.78125 -9.453125 L 3.46875 -9.453125 Z M 3.46875 -6.421875 "/></g></g></g><g fill="#000000" fill-opacity="1"><g transform="translate(168.667203, 26.28345)"><g><path d="M 3.46875 -11.546875 L 3.46875 0 L 0.84375 0 L 0.84375 -11.546875 Z M 3.46875 -11.546875 "/></g></g></g><g fill="#000000" fill-opacity="1"><g transform="translate(171.996439, 26.28345)"><g><path d="M 3.46875 -7.171875 L 3.46875 0 L 0.84375 0 L 0.84375 -11.546875 L 3.46875 -11.546875 L 8.0625 -4.375 L 8.09375 -4.375 L 8.09375 -11.546875 L 10.71875 -11.546875 L 10.71875 0 L 8.09375 0 L 3.5 -7.171875 Z M 3.46875 -7.171875 "/></g></g></g><g fill="#000000" fill-opacity="1"><g transform="translate(182.573042, 26.28345)"><g><path d="M 11.28125 -6.46875 L 11.28125 -3.96875 C 10.988281 -2.59375 10.335938 -1.550781 9.328125 -0.84375 C 8.316406 -0.144531 7.191406 0.203125 5.953125 0.203125 C 4.390625 0.203125 3.0625 -0.378906 1.96875 -1.546875 C 0.875 -2.710938 0.328125 -4.117188 0.328125 -5.765625 C 0.328125 -7.441406 0.863281 -8.859375 1.9375 -10.015625 C 3.007812 -11.179688 4.347656 -11.765625 5.953125 -11.765625 C 7.828125 -11.765625 9.3125 -11.101562 10.40625 -9.78125 L 8.6875 -7.890625 C 8.0625 -8.878906 7.203125 -9.375 6.109375 -9.375 C 5.296875 -9.375 4.597656 -9.019531 4.015625 -8.3125 C 3.441406 -7.613281 3.15625 -6.765625 3.15625 -5.765625 C 3.15625 -4.785156 3.441406 -3.945312 4.015625 -3.25 C 4.597656 -2.5625 5.296875 -2.21875 6.109375 -2.21875 C 6.773438 -2.21875 7.359375 -2.421875 7.859375 -2.828125 C 8.359375 -3.234375 8.609375 -3.769531 8.609375 -4.4375 L 5.953125 -4.4375 L 5.953125 -6.46875 Z M 11.28125 -6.46875 "/></g></g></g><g fill="#000000" fill-opacity="1"><g transform="translate(35.824784, 50.033705)"><g><path d="M 4.796875 -8.25 L 8.125 0 L 6.09375 0 L 5.484375 -1.65625 L 2.34375 -1.65625 L 1.734375 0 L -0.28125 0 L 3.046875 -8.25 Z M 4.84375 -3.296875 L 3.9375 -5.703125 L 3.90625 -5.703125 L 2.984375 -3.296875 Z M 4.84375 -3.296875 "/></g></g></g><g fill="#000000" fill-opacity="1"><g transform="translate(43.379784, 50.033705)"><g><path d="M 4.984375 -1.703125 C 5.273438 -1.703125 5.554688 -1.742188 5.828125 -1.828125 C 6.097656 -1.910156 6.296875 -1.992188 6.421875 -2.078125 L 6.609375 -2.203125 L 7.40625 -0.609375 C 7.382812 -0.585938 7.347656 -0.5625 7.296875 -0.53125 C 7.253906 -0.5 7.144531 -0.4375 6.96875 -0.34375 C 6.800781 -0.25 6.617188 -0.171875 6.421875 -0.109375 C 6.234375 -0.046875 5.984375 0.0078125 5.671875 0.0625 C 5.359375 0.125 5.035156 0.15625 4.703125 0.15625 C 3.929688 0.15625 3.203125 -0.03125 2.515625 -0.40625 C 1.828125 -0.789062 1.273438 -1.3125 0.859375 -1.96875 C 0.441406 -2.625 0.234375 -3.335938 0.234375 -4.109375 C 0.234375 -4.691406 0.351562 -5.25 0.59375 -5.78125 C 0.84375 -6.3125 1.171875 -6.765625 1.578125 -7.140625 C 1.992188 -7.523438 2.472656 -7.832031 3.015625 -8.0625 C 3.566406 -8.289062 4.128906 -8.40625 4.703125 -8.40625 C 5.234375 -8.40625 5.722656 -8.335938 6.171875 -8.203125 C 6.617188 -8.078125 6.9375 -7.953125 7.125 -7.828125 L 7.40625 -7.640625 L 6.609375 -6.046875 C 6.566406 -6.078125 6.5 -6.117188 6.40625 -6.171875 C 6.3125 -6.234375 6.125 -6.3125 5.84375 -6.40625 C 5.5625 -6.5 5.273438 -6.546875 4.984375 -6.546875 C 4.535156 -6.546875 4.128906 -6.472656 3.765625 -6.328125 C 3.410156 -6.179688 3.125 -5.988281 2.90625 -5.75 C 2.695312 -5.507812 2.535156 -5.25 2.421875 -4.96875 C 2.316406 -4.695312 2.265625 -4.414062 2.265625 -4.125 C 2.265625 -3.5 2.5 -2.9375 2.96875 -2.4375 C 3.445312 -1.945312 4.117188 -1.703125 4.984375 -1.703125 Z M 4.984375 -1.703125 "/></g></g></g><g fill="#000000" fill-opacity="1"><g transform="translate(50.624976, 50.033705)"><g><path d="M 0.234375 -4.125 C 0.234375 -5.320312 0.640625 -6.332031 1.453125 -7.15625 C 2.265625 -7.988281 3.242188 -8.40625 4.390625 -8.40625 C 5.546875 -8.40625 6.523438 -7.992188 7.328125 -7.171875 C 8.140625 -6.347656 8.546875 -5.332031 8.546875 -4.125 C 8.546875 -2.914062 8.144531 -1.898438 7.34375 -1.078125 C 6.550781 -0.253906 5.566406 0.15625 4.390625 0.15625 C 3.179688 0.15625 2.1875 -0.25 1.40625 -1.0625 C 0.625 -1.882812 0.234375 -2.90625 0.234375 -4.125 Z M 2.265625 -4.125 C 2.265625 -3.695312 2.328125 -3.300781 2.453125 -2.9375 C 2.585938 -2.582031 2.820312 -2.28125 3.15625 -2.03125 C 3.488281 -1.789062 3.898438 -1.671875 4.390625 -1.671875 C 5.085938 -1.671875 5.613281 -1.910156 5.96875 -2.390625 C 6.332031 -2.867188 6.515625 -3.445312 6.515625 -4.125 C 6.515625 -4.800781 6.332031 -5.378906 5.96875 -5.859375 C 5.601562 -6.347656 5.078125 -6.59375 4.390625 -6.59375 C 3.710938 -6.59375 3.1875 -6.347656 2.8125 -5.859375 C 2.445312 -5.378906 2.265625 -4.800781 2.265625 -4.125 Z M 2.265625 -4.125 "/></g></g></g><g fill="#000000" fill-opacity="1"><g transform="translate(59.109379, 50.033705)"><g><path d="M 6.9375 -8.25 L 6.9375 -2.9375 C 6.9375 -1.914062 6.660156 -1.144531 6.109375 -0.625 C 5.566406 -0.101562 4.769531 0.15625 3.71875 0.15625 C 2.664062 0.15625 1.863281 -0.101562 1.3125 -0.625 C 0.769531 -1.144531 0.5 -1.914062 0.5 -2.9375 L 0.5 -8.25 L 2.375 -8.25 L 2.375 -3.484375 C 2.375 -2.816406 2.476562 -2.351562 2.6875 -2.09375 C 2.90625 -1.832031 3.25 -1.703125 3.71875 -1.703125 C 4.195312 -1.703125 4.539062 -1.832031 4.75 -2.09375 C 4.957031 -2.351562 5.0625 -2.816406 5.0625 -3.484375 L 5.0625 -8.25 Z M 6.9375 -8.25 "/></g></g></g><g fill="#000000" fill-opacity="1"><g transform="translate(66.264633, 50.033705)"><g><path d="M 3.640625 -8.40625 C 4.085938 -8.40625 4.523438 -8.335938 4.953125 -8.203125 C 5.378906 -8.078125 5.695312 -7.945312 5.90625 -7.8125 L 6.203125 -7.625 L 5.4375 -6.125 C 5.375 -6.164062 5.289062 -6.21875 5.1875 -6.28125 C 5.082031 -6.34375 4.882812 -6.425781 4.59375 -6.53125 C 4.300781 -6.632812 4.023438 -6.6875 3.765625 -6.6875 C 3.453125 -6.6875 3.210938 -6.617188 3.046875 -6.484375 C 2.878906 -6.359375 2.796875 -6.179688 2.796875 -5.953125 C 2.796875 -5.835938 2.832031 -5.726562 2.90625 -5.625 C 2.988281 -5.53125 3.125 -5.425781 3.3125 -5.3125 C 3.507812 -5.207031 3.679688 -5.117188 3.828125 -5.046875 C 3.972656 -4.984375 4.203125 -4.890625 4.515625 -4.765625 C 5.046875 -4.535156 5.5 -4.222656 5.875 -3.828125 C 6.25 -3.441406 6.4375 -3.003906 6.4375 -2.515625 C 6.4375 -2.035156 6.351562 -1.617188 6.1875 -1.265625 C 6.019531 -0.910156 5.785156 -0.632812 5.484375 -0.4375 C 5.191406 -0.238281 4.863281 -0.09375 4.5 0 C 4.132812 0.101562 3.742188 0.15625 3.328125 0.15625 C 2.972656 0.15625 2.617188 0.117188 2.265625 0.046875 C 1.921875 -0.0234375 1.628906 -0.117188 1.390625 -0.234375 C 1.160156 -0.347656 0.953125 -0.457031 0.765625 -0.5625 C 0.578125 -0.664062 0.441406 -0.753906 0.359375 -0.828125 L 0.234375 -0.9375 L 1.171875 -2.515625 C 1.253906 -2.453125 1.363281 -2.367188 1.5 -2.265625 C 1.632812 -2.160156 1.878906 -2.019531 2.234375 -1.84375 C 2.597656 -1.675781 2.914062 -1.59375 3.1875 -1.59375 C 3.976562 -1.59375 4.375 -1.863281 4.375 -2.40625 C 4.375 -2.507812 4.34375 -2.609375 4.28125 -2.703125 C 4.226562 -2.804688 4.128906 -2.90625 3.984375 -3 C 3.847656 -3.101562 3.722656 -3.179688 3.609375 -3.234375 C 3.503906 -3.285156 3.328125 -3.367188 3.078125 -3.484375 C 2.828125 -3.609375 2.640625 -3.703125 2.515625 -3.765625 C 2.015625 -4.003906 1.628906 -4.304688 1.359375 -4.671875 C 1.085938 -5.046875 0.953125 -5.445312 0.953125 -5.875 C 0.953125 -6.613281 1.222656 -7.21875 1.765625 -7.6875 C 2.316406 -8.164062 2.941406 -8.40625 3.640625 -8.40625 Z M 3.640625 -8.40625 "/></g></g></g><g fill="#000000" fill-opacity="1"><g transform="translate(72.700344, 50.033705)"><g><path d="M 0.078125 -6.59375 L 0.078125 -8.25 L 5.875 -8.25 L 5.875 -6.59375 L 3.921875 -6.59375 L 3.921875 0 L 2.046875 0 L 2.046875 -6.59375 Z M 0.078125 -6.59375 "/></g></g></g><g fill="#000000" fill-opacity="1"><g transform="translate(78.376541, 50.033705)"><g><path d="M 2.484375 -8.25 L 2.484375 0 L 0.59375 0 L 0.59375 -8.25 Z M 2.484375 -8.25 "/></g></g></g><g fill="#000000" fill-opacity="1"><g transform="translate(81.174575, 50.033705)"><g><path d="M 4.984375 -1.703125 C 5.273438 -1.703125 5.554688 -1.742188 5.828125 -1.828125 C 6.097656 -1.910156 6.296875 -1.992188 6.421875 -2.078125 L 6.609375 -2.203125 L 7.40625 -0.609375 C 7.382812 -0.585938 7.347656 -0.5625 7.296875 -0.53125 C 7.253906 -0.5 7.144531 -0.4375 6.96875 -0.34375 C 6.800781 -0.25 6.617188 -0.171875 6.421875 -0.109375 C 6.234375 -0.046875 5.984375 0.0078125 5.671875 0.0625 C 5.359375 0.125 5.035156 0.15625 4.703125 0.15625 C 3.929688 0.15625 3.203125 -0.03125 2.515625 -0.40625 C 1.828125 -0.789062 1.273438 -1.3125 0.859375 -1.96875 C 0.441406 -2.625 0.234375 -3.335938 0.234375 -4.109375 C 0.234375 -4.691406 0.351562 -5.25 0.59375 -5.78125 C 0.84375 -6.3125 1.171875 -6.765625 1.578125 -7.140625 C 1.992188 -7.523438 2.472656 -7.832031 3.015625 -8.0625 C 3.566406 -8.289062 4.128906 -8.40625 4.703125 -8.40625 C 5.234375 -8.40625 5.722656 -8.335938 6.171875 -8.203125 C 6.617188 -8.078125 6.9375 -7.953125 7.125 -7.828125 L 7.40625 -7.640625 L 6.609375 -6.046875 C 6.566406 -6.078125 6.5 -6.117188 6.40625 -6.171875 C 6.3125 -6.234375 6.125 -6.3125 5.84375 -6.40625 C 5.5625 -6.5 5.273438 -6.546875 4.984375 -6.546875 C 4.535156 -6.546875 4.128906 -6.472656 3.765625 -6.328125 C 3.410156 -6.179688 3.125 -5.988281 2.90625 -5.75 C 2.695312 -5.507812 2.535156 -5.25 2.421875 -4.96875 C 2.316406 -4.695312 2.265625 -4.414062 2.265625 -4.125 C 2.265625 -3.5 2.5 -2.9375 2.96875 -2.4375 C 3.445312 -1.945312 4.117188 -1.703125 4.984375 -1.703125 Z M 4.984375 -1.703125 "/></g></g></g><g fill="#000000" fill-opacity="1"><g transform="translate(88.419767, 50.033705)"><g><path d="M 3.640625 -8.40625 C 4.085938 -8.40625 4.523438 -8.335938 4.953125 -8.203125 C 5.378906 -8.078125 5.695312 -7.945312 5.90625 -7.8125 L 6.203125 -7.625 L 5.4375 -6.125 C 5.375 -6.164062 5.289062 -6.21875 5.1875 -6.28125 C 5.082031 -6.34375 4.882812 -6.425781 4.59375 -6.53125 C 4.300781 -6.632812 4.023438 -6.6875 3.765625 -6.6875 C 3.453125 -6.6875 3.210938 -6.617188 3.046875 -6.484375 C 2.878906 -6.359375 2.796875 -6.179688 2.796875 -5.953125 C 2.796875 -5.835938 2.832031 -5.726562 2.90625 -5.625 C 2.988281 -5.53125 3.125 -5.425781 3.3125 -5.3125 C 3.507812 -5.207031 3.679688 -5.117188 3.828125 -5.046875 C 3.972656 -4.984375 4.203125 -4.890625 4.515625 -4.765625 C 5.046875 -4.535156 5.5 -4.222656 5.875 -3.828125 C 6.25 -3.441406 6.4375 -3.003906 6.4375 -2.515625 C 6.4375 -2.035156 6.351562 -1.617188 6.1875 -1.265625 C 6.019531 -0.910156 5.785156 -0.632812 5.484375 -0.4375 C 5.191406 -0.238281 4.863281 -0.09375 4.5 0 C 4.132812 0.101562 3.742188 0.15625 3.328125 0.15625 C 2.972656 0.15625 2.617188 0.117188 2.265625 0.046875 C 1.921875 -0.0234375 1.628906 -0.117188 1.390625 -0.234375 C 1.160156 -0.347656 0.953125 -0.457031 0.765625 -0.5625 C 0.578125 -0.664062 0.441406 -0.753906 0.359375 -0.828125 L 0.234375 -0.9375 L 1.171875 -2.515625 C 1.253906 -2.453125 1.363281 -2.367188 1.5 -2.265625 C 1.632812 -2.160156 1.878906 -2.019531 2.234375 -1.84375 C 2.597656 -1.675781 2.914062 -1.59375 3.1875 -1.59375 C 3.976562 -1.59375 4.375 -1.863281 4.375 -2.40625 C 4.375 -2.507812 4.34375 -2.609375 4.28125 -2.703125 C 4.226562 -2.804688 4.128906 -2.90625 3.984375 -3 C 3.847656 -3.101562 3.722656 -3.179688 3.609375 -3.234375 C 3.503906 -3.285156 3.328125 -3.367188 3.078125 -3.484375 C 2.828125 -3.609375 2.640625 -3.703125 2.515625 -3.765625 C 2.015625 -4.003906 1.628906 -4.304688 1.359375 -4.671875 C 1.085938 -5.046875 0.953125 -5.445312 0.953125 -5.875 C 0.953125 -6.613281 1.222656 -7.21875 1.765625 -7.6875 C 2.316406 -8.164062 2.941406 -8.40625 3.640625 -8.40625 Z M 3.640625 -8.40625 "/></g></g></g><g fill="#000000" fill-opacity="1"><g transform="translate(94.855478, 50.033705)"><g/></g></g><g fill="#000000" fill-opacity="1"><g transform="translate(97.303732, 50.033705)"><g><path d="M 4.984375 -1.703125 C 5.273438 -1.703125 5.554688 -1.742188 5.828125 -1.828125 C 6.097656 -1.910156 6.296875 -1.992188 6.421875 -2.078125 L 6.609375 -2.203125 L 7.40625 -0.609375 C 7.382812 -0.585938 7.347656 -0.5625 7.296875 -0.53125 C 7.253906 -0.5 7.144531 -0.4375 6.96875 -0.34375 C 6.800781 -0.25 6.617188 -0.171875 6.421875 -0.109375 C 6.234375 -0.046875 5.984375 0.0078125 5.671875 0.0625 C 5.359375 0.125 5.035156 0.15625 4.703125 0.15625 C 3.929688 0.15625 3.203125 -0.03125 2.515625 -0.40625 C 1.828125 -0.789062 1.273438 -1.3125 0.859375 -1.96875 C 0.441406 -2.625 0.234375 -3.335938 0.234375 -4.109375 C 0.234375 -4.691406 0.351562 -5.25 0.59375 -5.78125 C 0.84375 -6.3125 1.171875 -6.765625 1.578125 -7.140625 C 1.992188 -7.523438 2.472656 -7.832031 3.015625 -8.0625 C 3.566406 -8.289062 4.128906 -8.40625 4.703125 -8.40625 C 5.234375 -8.40625 5.722656 -8.335938 6.171875 -8.203125 C 6.617188 -8.078125 6.9375 -7.953125 7.125 -7.828125 L 7.40625 -7.640625 L 6.609375 -6.046875 C 6.566406 -6.078125 6.5 -6.117188 6.40625 -6.171875 C 6.3125 -6.234375 6.125 -6.3125 5.84375 -6.40625 C 5.5625 -6.5 5.273438 -6.546875 4.984375 -6.546875 C 4.535156 -6.546875 4.128906 -6.472656 3.765625 -6.328125 C 3.410156 -6.179688 3.125 -5.988281 2.90625 -5.75 C 2.695312 -5.507812 2.535156 -5.25 2.421875 -4.96875 C 2.316406 -4.695312 2.265625 -4.414062 2.265625 -4.125 C 2.265625 -3.5 2.5 -2.9375 2.96875 -2.4375 C 3.445312 -1.945312 4.117188 -1.703125 4.984375 -1.703125 Z M 4.984375 -1.703125 "/></g></g></g><g fill="#000000" fill-opacity="1"><g transform="translate(104.548925, 50.033705)"><g><path d="M 0.234375 -4.125 C 0.234375 -5.320312 0.640625 -6.332031 1.453125 -7.15625 C 2.265625 -7.988281 3.242188 -8.40625 4.390625 -8.40625 C 5.546875 -8.40625 6.523438 -7.992188 7.328125 -7.171875 C 8.140625 -6.347656 8.546875 -5.332031 8.546875 -4.125 C 8.546875 -2.914062 8.144531 -1.898438 7.34375 -1.078125 C 6.550781 -0.253906 5.566406 0.15625 4.390625 0.15625 C 3.179688 0.15625 2.1875 -0.25 1.40625 -1.0625 C 0.625 -1.882812 0.234375 -2.90625 0.234375 -4.125 Z M 2.265625 -4.125 C 2.265625 -3.695312 2.328125 -3.300781 2.453125 -2.9375 C 2.585938 -2.582031 2.820312 -2.28125 3.15625 -2.03125 C 3.488281 -1.789062 3.898438 -1.671875 4.390625 -1.671875 C 5.085938 -1.671875 5.613281 -1.910156 5.96875 -2.390625 C 6.332031 -2.867188 6.515625 -3.445312 6.515625 -4.125 C 6.515625 -4.800781 6.332031 -5.378906 5.96875 -5.859375 C 5.601562 -6.347656 5.078125 -6.59375 4.390625 -6.59375 C 3.710938 -6.59375 3.1875 -6.347656 2.8125 -5.859375 C 2.445312 -5.378906 2.265625 -4.800781 2.265625 -4.125 Z M 2.265625 -4.125 "/></g></g></g><g fill="#000000" fill-opacity="1"><g transform="translate(113.033328, 50.033705)"><g><path d="M 2.484375 -5.125 L 2.484375 0 L 0.59375 0 L 0.59375 -8.25 L 2.484375 -8.25 L 5.765625 -3.125 L 5.78125 -3.125 L 5.78125 -8.25 L 7.65625 -8.25 L 7.65625 0 L 5.78125 0 L 2.5 -5.125 Z M 2.484375 -5.125 "/></g></g></g><g fill="#000000" fill-opacity="1"><g transform="translate(121.008057, 50.033705)"><g><path d="M 3.640625 -8.40625 C 4.085938 -8.40625 4.523438 -8.335938 4.953125 -8.203125 C 5.378906 -8.078125 5.695312 -7.945312 5.90625 -7.8125 L 6.203125 -7.625 L 5.4375 -6.125 C 5.375 -6.164062 5.289062 -6.21875 5.1875 -6.28125 C 5.082031 -6.34375 4.882812 -6.425781 4.59375 -6.53125 C 4.300781 -6.632812 4.023438 -6.6875 3.765625 -6.6875 C 3.453125 -6.6875 3.210938 -6.617188 3.046875 -6.484375 C 2.878906 -6.359375 2.796875 -6.179688 2.796875 -5.953125 C 2.796875 -5.835938 2.832031 -5.726562 2.90625 -5.625 C 2.988281 -5.53125 3.125 -5.425781 3.3125 -5.3125 C 3.507812 -5.207031 3.679688 -5.117188 3.828125 -5.046875 C 3.972656 -4.984375 4.203125 -4.890625 4.515625 -4.765625 C 5.046875 -4.535156 5.5 -4.222656 5.875 -3.828125 C 6.25 -3.441406 6.4375 -3.003906 6.4375 -2.515625 C 6.4375 -2.035156 6.351562 -1.617188 6.1875 -1.265625 C 6.019531 -0.910156 5.785156 -0.632812 5.484375 -0.4375 C 5.191406 -0.238281 4.863281 -0.09375 4.5 0 C 4.132812 0.101562 3.742188 0.15625 3.328125 0.15625 C 2.972656 0.15625 2.617188 0.117188 2.265625 0.046875 C 1.921875 -0.0234375 1.628906 -0.117188 1.390625 -0.234375 C 1.160156 -0.347656 0.953125 -0.457031 0.765625 -0.5625 C 0.578125 -0.664062 0.441406 -0.753906 0.359375 -0.828125 L 0.234375 -0.9375 L 1.171875 -2.515625 C 1.253906 -2.453125 1.363281 -2.367188 1.5 -2.265625 C 1.632812 -2.160156 1.878906 -2.019531 2.234375 -1.84375 C 2.597656 -1.675781 2.914062 -1.59375 3.1875 -1.59375 C 3.976562 -1.59375 4.375 -1.863281 4.375 -2.40625 C 4.375 -2.507812 4.34375 -2.609375 4.28125 -2.703125 C 4.226562 -2.804688 4.128906 -2.90625 3.984375 -3 C 3.847656 -3.101562 3.722656 -3.179688 3.609375 -3.234375 C 3.503906 -3.285156 3.328125 -3.367188 3.078125 -3.484375 C 2.828125 -3.609375 2.640625 -3.703125 2.515625 -3.765625 C 2.015625 -4.003906 1.628906 -4.304688 1.359375 -4.671875 C 1.085938 -5.046875 0.953125 -5.445312 0.953125 -5.875 C 0.953125 -6.613281 1.222656 -7.21875 1.765625 -7.6875 C 2.316406 -8.164062 2.941406 -8.40625 3.640625 -8.40625 Z M 3.640625 -8.40625 "/></g></g></g><g fill="#000000" fill-opacity="1"><g transform="translate(127.443768, 50.033705)"><g><path d="M 6.9375 -8.25 L 6.9375 -2.9375 C 6.9375 -1.914062 6.660156 -1.144531 6.109375 -0.625 C 5.566406 -0.101562 4.769531 0.15625 3.71875 0.15625 C 2.664062 0.15625 1.863281 -0.101562 1.3125 -0.625 C 0.769531 -1.144531 0.5 -1.914062 0.5 -2.9375 L 0.5 -8.25 L 2.375 -8.25 L 2.375 -3.484375 C 2.375 -2.816406 2.476562 -2.351562 2.6875 -2.09375 C 2.90625 -1.832031 3.25 -1.703125 3.71875 -1.703125 C 4.195312 -1.703125 4.539062 -1.832031 4.75 -2.09375 C 4.957031 -2.351562 5.0625 -2.816406 5.0625 -3.484375 L 5.0625 -8.25 Z M 6.9375 -8.25 "/></g></g></g><g fill="#000000" fill-opacity="1"><g transform="translate(134.599021, 50.033705)"><g><path d="M 2.484375 -8.25 L 2.484375 -1.65625 L 5.3125 -1.65625 L 5.3125 0 L 0.59375 0 L 0.59375 -8.25 Z M 2.484375 -8.25 "/></g></g></g><g fill="#000000" fill-opacity="1"><g transform="translate(139.965417, 50.033705)"><g><path d="M 0.078125 -6.59375 L 0.078125 -8.25 L 5.875 -8.25 L 5.875 -6.59375 L 3.921875 -6.59375 L 3.921875 0 L 2.046875 0 L 2.046875 -6.59375 Z M 0.078125 -6.59375 "/></g></g></g><g fill="#000000" fill-opacity="1"><g transform="translate(145.641607, 50.033705)"><g><path d="M 2.484375 -8.25 L 2.484375 0 L 0.59375 0 L 0.59375 -8.25 Z M 2.484375 -8.25 "/></g></g></g><g fill="#000000" fill-opacity="1"><g transform="translate(148.439641, 50.033705)"><g><path d="M 2.484375 -5.125 L 2.484375 0 L 0.59375 0 L 0.59375 -8.25 L 2.484375 -8.25 L 5.765625 -3.125 L 5.78125 -3.125 L 5.78125 -8.25 L 7.65625 -8.25 L 7.65625 0 L 5.78125 0 L 2.5 -5.125 Z M 2.484375 -5.125 "/></g></g></g><g fill="#000000" fill-opacity="1"><g transform="translate(156.414377, 50.033705)"><g><path d="M 8.0625 -4.625 L 8.0625 -2.828125 C 7.84375 -1.847656 7.375 -1.101562 6.65625 -0.59375 C 5.9375 -0.09375 5.132812 0.15625 4.25 0.15625 C 3.132812 0.15625 2.1875 -0.257812 1.40625 -1.09375 C 0.625 -1.925781 0.234375 -2.9375 0.234375 -4.125 C 0.234375 -5.320312 0.613281 -6.332031 1.375 -7.15625 C 2.144531 -7.988281 3.101562 -8.40625 4.25 -8.40625 C 5.59375 -8.40625 6.65625 -7.929688 7.4375 -6.984375 L 6.203125 -5.640625 C 5.765625 -6.347656 5.148438 -6.703125 4.359375 -6.703125 C 3.773438 -6.703125 3.28125 -6.445312 2.875 -5.9375 C 2.46875 -5.4375 2.265625 -4.832031 2.265625 -4.125 C 2.265625 -3.414062 2.46875 -2.8125 2.875 -2.3125 C 3.28125 -1.820312 3.773438 -1.578125 4.359375 -1.578125 C 4.835938 -1.578125 5.253906 -1.722656 5.609375 -2.015625 C 5.972656 -2.304688 6.15625 -2.691406 6.15625 -3.171875 L 4.25 -3.171875 L 4.25 -4.625 Z M 8.0625 -4.625 "/></g></g></g><g fill="#000000" fill-opacity="1"><g transform="translate(164.419083, 50.033705)"><g/></g></g><g fill="#000000" fill-opacity="1"><g transform="translate(166.867344, 50.033705)"><g><path d="M 0.296875 -2.171875 C 0.296875 -2.421875 0.347656 -2.65625 0.453125 -2.875 C 0.566406 -3.101562 0.726562 -3.3125 0.9375 -3.5 C 1.144531 -3.6875 1.351562 -3.847656 1.5625 -3.984375 C 1.78125 -4.128906 2.023438 -4.273438 2.296875 -4.421875 C 1.742188 -5.109375 1.46875 -5.71875 1.46875 -6.25 C 1.46875 -6.90625 1.695312 -7.425781 2.15625 -7.8125 C 2.613281 -8.207031 3.257812 -8.40625 4.09375 -8.40625 C 4.875 -8.40625 5.476562 -8.1875 5.90625 -7.75 C 6.332031 -7.3125 6.546875 -6.8125 6.546875 -6.25 C 6.546875 -6.019531 6.488281 -5.789062 6.375 -5.5625 C 6.257812 -5.34375 6.125 -5.15625 5.96875 -5 C 5.8125 -4.84375 5.65625 -4.703125 5.5 -4.578125 C 5.34375 -4.460938 5.207031 -4.375 5.09375 -4.3125 L 4.921875 -4.21875 L 6.015625 -3.078125 C 6.253906 -3.179688 6.660156 -3.53125 7.234375 -4.125 L 8.390625 -2.984375 C 8.015625 -2.554688 7.625 -2.175781 7.21875 -1.84375 L 9 0 L 6.625 0 L 5.8125 -0.84375 C 5.5625 -0.664062 5.375 -0.535156 5.25 -0.453125 C 5.125 -0.378906 4.941406 -0.28125 4.703125 -0.15625 C 4.472656 -0.0390625 4.234375 0.0351562 3.984375 0.078125 C 3.734375 0.128906 3.457031 0.15625 3.15625 0.15625 C 2.894531 0.15625 2.640625 0.128906 2.390625 0.078125 C 2.140625 0.0351562 1.882812 -0.0351562 1.625 -0.140625 C 1.363281 -0.253906 1.132812 -0.394531 0.9375 -0.5625 C 0.75 -0.726562 0.59375 -0.945312 0.46875 -1.21875 C 0.351562 -1.5 0.296875 -1.816406 0.296875 -2.171875 Z M 4.09375 -7.0625 C 3.851562 -7.0625 3.671875 -6.984375 3.546875 -6.828125 C 3.429688 -6.679688 3.375 -6.488281 3.375 -6.25 C 3.375 -6.113281 3.425781 -5.957031 3.53125 -5.78125 C 3.632812 -5.613281 3.734375 -5.476562 3.828125 -5.375 L 3.984375 -5.234375 C 4.597656 -5.566406 4.90625 -5.90625 4.90625 -6.25 C 4.90625 -6.789062 4.632812 -7.0625 4.09375 -7.0625 Z M 4.59375 -2.09375 L 3.28125 -3.390625 C 3.257812 -3.378906 3.226562 -3.363281 3.1875 -3.34375 C 3.144531 -3.332031 3.070312 -3.296875 2.96875 -3.234375 C 2.875 -3.171875 2.789062 -3.097656 2.71875 -3.015625 C 2.644531 -2.941406 2.578125 -2.84375 2.515625 -2.71875 C 2.453125 -2.59375 2.421875 -2.457031 2.421875 -2.3125 C 2.421875 -2.09375 2.515625 -1.921875 2.703125 -1.796875 C 2.890625 -1.679688 3.101562 -1.625 3.34375 -1.625 C 3.550781 -1.625 3.753906 -1.660156 3.953125 -1.734375 C 4.160156 -1.816406 4.320312 -1.898438 4.4375 -1.984375 Z M 4.59375 -2.09375 "/></g></g></g><g fill="#000000" fill-opacity="1"><g transform="translate(174.912029, 50.033705)"><g/></g></g><g fill="#000000" fill-opacity="1"><g transform="translate(177.36029, 50.033705)"><g><path d="M 0.59375 -8.25 L 2.984375 -8.25 C 4.128906 -8.25 5.109375 -7.859375 5.921875 -7.078125 C 6.742188 -6.296875 7.15625 -5.3125 7.15625 -4.125 C 7.15625 -2.9375 6.75 -1.953125 5.9375 -1.171875 C 5.125 -0.390625 4.140625 0 2.984375 0 L 0.59375 0 Z M 2.484375 -1.6875 L 2.765625 -1.6875 C 3.453125 -1.6875 4.015625 -1.914062 4.453125 -2.375 C 4.890625 -2.832031 5.113281 -3.414062 5.125 -4.125 C 5.125 -4.820312 4.90625 -5.398438 4.46875 -5.859375 C 4.03125 -6.328125 3.460938 -6.5625 2.765625 -6.5625 L 2.484375 -6.5625 Z M 2.484375 -1.6875 "/></g></g></g><g fill="#000000" fill-opacity="1"><g transform="translate(184.455575, 50.033705)"><g><path d="M 5.3125 -8.25 L 5.3125 -6.59375 L 2.484375 -6.59375 L 2.484375 -4.953125 L 5.203125 -4.953125 L 5.203125 -3.3125 L 2.484375 -3.3125 L 2.484375 -1.65625 L 5.3125 -1.65625 L 5.3125 0 L 0.59375 0 L 0.59375 -8.25 Z M 5.3125 -8.25 "/></g></g></g><g fill="#000000" fill-opacity="1"><g transform="translate(189.971865, 50.033705)"><g><path d="M 3.640625 -8.40625 C 4.085938 -8.40625 4.523438 -8.335938 4.953125 -8.203125 C 5.378906 -8.078125 5.695312 -7.945312 5.90625 -7.8125 L 6.203125 -7.625 L 5.4375 -6.125 C 5.375 -6.164062 5.289062 -6.21875 5.1875 -6.28125 C 5.082031 -6.34375 4.882812 -6.425781 4.59375 -6.53125 C 4.300781 -6.632812 4.023438 -6.6875 3.765625 -6.6875 C 3.453125 -6.6875 3.210938 -6.617188 3.046875 -6.484375 C 2.878906 -6.359375 2.796875 -6.179688 2.796875 -5.953125 C 2.796875 -5.835938 2.832031 -5.726562 2.90625 -5.625 C 2.988281 -5.53125 3.125 -5.425781 3.3125 -5.3125 C 3.507812 -5.207031 3.679688 -5.117188 3.828125 -5.046875 C 3.972656 -4.984375 4.203125 -4.890625 4.515625 -4.765625 C 5.046875 -4.535156 5.5 -4.222656 5.875 -3.828125 C 6.25 -3.441406 6.4375 -3.003906 6.4375 -2.515625 C 6.4375 -2.035156 6.351562 -1.617188 6.1875 -1.265625 C 6.019531 -0.910156 5.785156 -0.632812 5.484375 -0.4375 C 5.191406 -0.238281 4.863281 -0.09375 4.5 0 C 4.132812 0.101562 3.742188 0.15625 3.328125 0.15625 C 2.972656 0.15625 2.617188 0.117188 2.265625 0.046875 C 1.921875 -0.0234375 1.628906 -0.117188 1.390625 -0.234375 C 1.160156 -0.347656 0.953125 -0.457031 0.765625 -0.5625 C 0.578125 -0.664062 0.441406 -0.753906 0.359375 -0.828125 L 0.234375 -0.9375 L 1.171875 -2.515625 C 1.253906 -2.453125 1.363281 -2.367188 1.5 -2.265625 C 1.632812 -2.160156 1.878906 -2.019531 2.234375 -1.84375 C 2.597656 -1.675781 2.914062 -1.59375 3.1875 -1.59375 C 3.976562 -1.59375 4.375 -1.863281 4.375 -2.40625 C 4.375 -2.507812 4.34375 -2.609375 4.28125 -2.703125 C 4.226562 -2.804688 4.128906 -2.90625 3.984375 -3 C 3.847656 -3.101562 3.722656 -3.179688 3.609375 -3.234375 C 3.503906 -3.285156 3.328125 -3.367188 3.078125 -3.484375 C 2.828125 -3.609375 2.640625 -3.703125 2.515625 -3.765625 C 2.015625 -4.003906 1.628906 -4.304688 1.359375 -4.671875 C 1.085938 -5.046875 0.953125 -5.445312 0.953125 -5.875 C 0.953125 -6.613281 1.222656 -7.21875 1.765625 -7.6875 C 2.316406 -8.164062 2.941406 -8.40625 3.640625 -8.40625 Z M 3.640625 -8.40625 "/></g></g></g><g fill="#000000" fill-opacity="1"><g transform="translate(196.407582, 50.033705)"><g><path d="M 2.484375 -8.25 L 2.484375 0 L 0.59375 0 L 0.59375 -8.25 Z M 2.484375 -8.25 "/></g></g></g><g fill="#000000" fill-opacity="1"><g transform="translate(199.205616, 50.033705)"><g><path d="M 8.0625 -4.625 L 8.0625 -2.828125 C 7.84375 -1.847656 7.375 -1.101562 6.65625 -0.59375 C 5.9375 -0.09375 5.132812 0.15625 4.25 0.15625 C 3.132812 0.15625 2.1875 -0.257812 1.40625 -1.09375 C 0.625 -1.925781 0.234375 -2.9375 0.234375 -4.125 C 0.234375 -5.320312 0.613281 -6.332031 1.375 -7.15625 C 2.144531 -7.988281 3.101562 -8.40625 4.25 -8.40625 C 5.59375 -8.40625 6.65625 -7.929688 7.4375 -6.984375 L 6.203125 -5.640625 C 5.765625 -6.347656 5.148438 -6.703125 4.359375 -6.703125 C 3.773438 -6.703125 3.28125 -6.445312 2.875 -5.9375 C 2.46875 -5.4375 2.265625 -4.832031 2.265625 -4.125 C 2.265625 -3.414062 2.46875 -2.8125 2.875 -2.3125 C 3.28125 -1.820312 3.773438 -1.578125 4.359375 -1.578125 C 4.835938 -1.578125 5.253906 -1.722656 5.609375 -2.015625 C 5.972656 -2.304688 6.15625 -2.691406 6.15625 -3.171875 L 4.25 -3.171875 L 4.25 -4.625 Z M 8.0625 -4.625 "/></g></g></g><g fill="#000000" fill-opacity="1"><g transform="translate(207.210323, 50.033705)"><g><path d="M 2.484375 -5.125 L 2.484375 0 L 0.59375 0 L 0.59375 -8.25 L 2.484375 -8.25 L 5.765625 -3.125 L 5.78125 -3.125 L 5.78125 -8.25 L 7.65625 -8.25 L 7.65625 0 L 5.78125 0 L 2.5 -5.125 Z M 2.484375 -5.125 "/></g></g></g><g fill="#000000" fill-opacity="1"><g transform="translate(87.663978, 104.849996)"><g><path d="M 7.359375 -7.578125 C 7.359375 -6.578125 6.929688 -5.832031 6.078125 -5.34375 C 6.609375 -5.101562 7.03125 -4.757812 7.34375 -4.3125 C 7.664062 -3.863281 7.828125 -3.3125 7.828125 -2.65625 C 7.828125 -1.851562 7.453125 -1.175781 6.703125 -0.625 C 5.953125 -0.0820312 5.09375 0.1875 4.125 0.1875 C 3.132812 0.1875 2.269531 -0.0820312 1.53125 -0.625 C 0.789062 -1.164062 0.421875 -1.84375 0.421875 -2.65625 C 0.421875 -3.914062 0.992188 -4.8125 2.140625 -5.34375 C 1.273438 -5.832031 0.84375 -6.578125 0.84375 -7.578125 C 0.84375 -8.285156 1.175781 -8.878906 1.84375 -9.359375 C 2.507812 -9.835938 3.265625 -10.078125 4.109375 -10.078125 C 4.984375 -10.078125 5.742188 -9.835938 6.390625 -9.359375 C 7.035156 -8.890625 7.359375 -8.296875 7.359375 -7.578125 Z M 5.21875 -7.265625 C 5.21875 -7.578125 5.113281 -7.835938 4.90625 -8.046875 C 4.707031 -8.265625 4.445312 -8.375 4.125 -8.375 C 3.800781 -8.375 3.535156 -8.265625 3.328125 -8.046875 C 3.117188 -7.835938 3.015625 -7.570312 3.015625 -7.25 C 3.015625 -6.9375 3.117188 -6.675781 3.328125 -6.46875 C 3.546875 -6.257812 3.8125 -6.15625 4.125 -6.15625 C 4.445312 -6.15625 4.707031 -6.253906 4.90625 -6.453125 C 5.113281 -6.660156 5.21875 -6.929688 5.21875 -7.265625 Z M 3.21875 -3.921875 C 2.988281 -3.691406 2.875 -3.390625 2.875 -3.015625 C 2.875 -2.648438 2.988281 -2.347656 3.21875 -2.109375 C 3.445312 -1.878906 3.742188 -1.765625 4.109375 -1.765625 C 4.472656 -1.765625 4.773438 -1.878906 5.015625 -2.109375 C 5.253906 -2.347656 5.375 -2.648438 5.375 -3.015625 C 5.375 -3.390625 5.25 -3.691406 5 -3.921875 C 4.757812 -4.160156 4.460938 -4.28125 4.109375 -4.28125 C 3.753906 -4.28125 3.457031 -4.160156 3.21875 -3.921875 Z M 3.21875 -3.921875 "/></g></g></g><g fill="#000000" fill-opacity="1"><g transform="translate(95.067987, 104.849996)"><g><path d="M 0.34375 -4.9375 C 0.34375 -6.570312 0.726562 -7.835938 1.5 -8.734375 C 2.269531 -9.628906 3.222656 -10.078125 4.359375 -10.078125 C 5.503906 -10.078125 6.460938 -9.628906 7.234375 -8.734375 C 8.003906 -7.835938 8.390625 -6.570312 8.390625 -4.9375 C 8.390625 -4.050781 8.28125 -3.269531 8.0625 -2.59375 C 7.84375 -1.925781 7.539062 -1.394531 7.15625 -1 C 6.78125 -0.601562 6.359375 -0.304688 5.890625 -0.109375 C 5.429688 0.0859375 4.925781 0.1875 4.375 0.1875 C 3.820312 0.1875 3.3125 0.0859375 2.84375 -0.109375 C 2.375 -0.304688 1.945312 -0.601562 1.5625 -1 C 1.175781 -1.394531 0.875 -1.925781 0.65625 -2.59375 C 0.445312 -3.269531 0.34375 -4.050781 0.34375 -4.9375 Z M 2.609375 -4.9375 C 2.609375 -3.894531 2.757812 -3.109375 3.0625 -2.578125 C 3.375 -2.054688 3.8125 -1.796875 4.375 -1.796875 C 4.925781 -1.796875 5.351562 -2.054688 5.65625 -2.578125 C 5.957031 -3.109375 6.109375 -3.894531 6.109375 -4.9375 C 6.109375 -5.9375 5.953125 -6.710938 5.640625 -7.265625 C 5.335938 -7.816406 4.910156 -8.09375 4.359375 -8.09375 C 3.816406 -8.09375 3.390625 -7.816406 3.078125 -7.265625 C 2.765625 -6.710938 2.609375 -5.9375 2.609375 -4.9375 Z M 2.609375 -4.9375 "/></g></g></g><g fill="#000000" fill-opacity="1"><g transform="translate(102.951996, 104.849996)"><g><path d="M 0.34375 -5.84375 L 0.34375 -8.078125 L 3.171875 -9.90625 L 4.234375 -9.90625 L 4.234375 0 L 1.984375 0 L 1.984375 -6.90625 Z M 0.34375 -5.84375 "/></g></g></g><g fill="#000000" fill-opacity="1"><g transform="translate(107.068004, 104.849996)"><g><path d="M 0.71875 -4.390625 L 4.578125 -4.390625 L 4.578125 -2.5625 L 0.71875 -2.5625 Z M 0.71875 -4.390625 "/></g></g></g><g fill="#000000" fill-opacity="1"><g transform="translate(111.532015, 104.849996)"><g><path d="M 0.21875 -1.96875 L 2 -2.828125 C 2.226562 -2.078125 2.8125 -1.703125 3.75 -1.703125 C 4.15625 -1.703125 4.488281 -1.835938 4.75 -2.109375 C 5.019531 -2.378906 5.15625 -2.722656 5.15625 -3.140625 C 5.15625 -3.554688 5.023438 -3.898438 4.765625 -4.171875 C 4.503906 -4.441406 4.191406 -4.628906 3.828125 -4.734375 C 3.460938 -4.835938 3.050781 -4.890625 2.59375 -4.890625 C 1.9375 -4.890625 1.375 -4.785156 0.90625 -4.578125 L 1.734375 -9.90625 L 6.78125 -9.90625 L 6.78125 -7.921875 L 3.65625 -7.921875 L 3.4375 -6.546875 C 3.46875 -6.546875 3.515625 -6.546875 3.578125 -6.546875 C 3.640625 -6.546875 3.6875 -6.546875 3.71875 -6.546875 C 4.21875 -6.546875 4.675781 -6.488281 5.09375 -6.375 C 5.507812 -6.269531 5.894531 -6.09375 6.25 -5.84375 C 6.613281 -5.59375 6.898438 -5.234375 7.109375 -4.765625 C 7.316406 -4.296875 7.421875 -3.734375 7.421875 -3.078125 C 7.421875 -2.128906 7.070312 -1.347656 6.375 -0.734375 C 5.6875 -0.117188 4.8125 0.1875 3.75 0.1875 C 2.78125 0.1875 2.003906 -0.0195312 1.421875 -0.4375 C 0.835938 -0.863281 0.4375 -1.375 0.21875 -1.96875 Z M 0.21875 -1.96875 "/></g></g></g><g fill="#000000" fill-opacity="1"><g transform="translate(118.38403, 104.849996)"><g><path d="M 1.3125 0 L 4.21875 -3.390625 C 4.050781 -3.296875 3.816406 -3.25 3.515625 -3.25 C 3.160156 -3.25 2.800781 -3.320312 2.4375 -3.46875 C 2.082031 -3.625 1.742188 -3.835938 1.421875 -4.109375 C 1.109375 -4.390625 0.851562 -4.753906 0.65625 -5.203125 C 0.457031 -5.660156 0.359375 -6.164062 0.359375 -6.71875 C 0.359375 -7.28125 0.460938 -7.78125 0.671875 -8.21875 C 0.890625 -8.664062 1.175781 -9.019531 1.53125 -9.28125 C 1.882812 -9.539062 2.273438 -9.738281 2.703125 -9.875 C 3.128906 -10.007812 3.570312 -10.078125 4.03125 -10.078125 C 5.144531 -10.078125 6.082031 -9.753906 6.84375 -9.109375 C 7.601562 -8.460938 7.984375 -7.664062 7.984375 -6.71875 C 7.984375 -5.914062 7.867188 -5.253906 7.640625 -4.734375 C 7.421875 -4.222656 7.015625 -3.566406 6.421875 -2.765625 L 4.09375 0 Z M 5.640625 -6.71875 C 5.640625 -7.15625 5.5 -7.515625 5.21875 -7.796875 C 4.9375 -8.078125 4.578125 -8.21875 4.140625 -8.21875 C 3.703125 -8.21875 3.335938 -8.078125 3.046875 -7.796875 C 2.753906 -7.515625 2.609375 -7.15625 2.609375 -6.71875 C 2.609375 -6.28125 2.753906 -5.914062 3.046875 -5.625 C 3.335938 -5.332031 3.703125 -5.1875 4.140625 -5.1875 C 4.554688 -5.1875 4.910156 -5.332031 5.203125 -5.625 C 5.492188 -5.914062 5.640625 -6.28125 5.640625 -6.71875 Z M 5.640625 -6.71875 "/></g></g></g><g fill="#000000" fill-opacity="1"><g transform="translate(125.812037, 104.849996)"><g><path d="M 8.5625 -9.90625 L 8.5625 -9.234375 L 3.328125 0 L 0.65625 0 L 5.21875 -7.921875 L 0.953125 -7.921875 L 0.953125 -9.90625 Z M 8.5625 -9.90625 "/></g></g></g><g fill="#000000" fill-opacity="1"><g transform="translate(133.228052, 104.849996)"><g><path d="M 0.71875 -4.390625 L 4.578125 -4.390625 L 4.578125 -2.5625 L 0.71875 -2.5625 Z M 0.71875 -4.390625 "/></g></g></g><g fill="#000000" fill-opacity="1"><g transform="translate(137.692063, 104.849996)"><g><path d="M 7.359375 -7.578125 C 7.359375 -6.578125 6.929688 -5.832031 6.078125 -5.34375 C 6.609375 -5.101562 7.03125 -4.757812 7.34375 -4.3125 C 7.664062 -3.863281 7.828125 -3.3125 7.828125 -2.65625 C 7.828125 -1.851562 7.453125 -1.175781 6.703125 -0.625 C 5.953125 -0.0820312 5.09375 0.1875 4.125 0.1875 C 3.132812 0.1875 2.269531 -0.0820312 1.53125 -0.625 C 0.789062 -1.164062 0.421875 -1.84375 0.421875 -2.65625 C 0.421875 -3.914062 0.992188 -4.8125 2.140625 -5.34375 C 1.273438 -5.832031 0.84375 -6.578125 0.84375 -7.578125 C 0.84375 -8.285156 1.175781 -8.878906 1.84375 -9.359375 C 2.507812 -9.835938 3.265625 -10.078125 4.109375 -10.078125 C 4.984375 -10.078125 5.742188 -9.835938 6.390625 -9.359375 C 7.035156 -8.890625 7.359375 -8.296875 7.359375 -7.578125 Z M 5.21875 -7.265625 C 5.21875 -7.578125 5.113281 -7.835938 4.90625 -8.046875 C 4.707031 -8.265625 4.445312 -8.375 4.125 -8.375 C 3.800781 -8.375 3.535156 -8.265625 3.328125 -8.046875 C 3.117188 -7.835938 3.015625 -7.570312 3.015625 -7.25 C 3.015625 -6.9375 3.117188 -6.675781 3.328125 -6.46875 C 3.546875 -6.257812 3.8125 -6.15625 4.125 -6.15625 C 4.445312 -6.15625 4.707031 -6.253906 4.90625 -6.453125 C 5.113281 -6.660156 5.21875 -6.929688 5.21875 -7.265625 Z M 3.21875 -3.921875 C 2.988281 -3.691406 2.875 -3.390625 2.875 -3.015625 C 2.875 -2.648438 2.988281 -2.347656 3.21875 -2.109375 C 3.445312 -1.878906 3.742188 -1.765625 4.109375 -1.765625 C 4.472656 -1.765625 4.773438 -1.878906 5.015625 -2.109375 C 5.253906 -2.347656 5.375 -2.648438 5.375 -3.015625 C 5.375 -3.390625 5.25 -3.691406 5 -3.921875 C 4.757812 -4.160156 4.460938 -4.28125 4.109375 -4.28125 C 3.753906 -4.28125 3.457031 -4.160156 3.21875 -3.921875 Z M 3.21875 -3.921875 "/></g></g></g><g fill="#000000" fill-opacity="1"><g transform="translate(145.096069, 104.849996)"><g><path d="M 2.453125 -7.046875 L 0.6875 -7.90625 C 0.695312 -7.957031 0.71875 -8.035156 0.75 -8.140625 C 0.78125 -8.242188 0.875 -8.414062 1.03125 -8.65625 C 1.195312 -8.90625 1.390625 -9.125 1.609375 -9.3125 C 1.828125 -9.507812 2.144531 -9.6875 2.5625 -9.84375 C 2.976562 -10 3.441406 -10.078125 3.953125 -10.078125 C 4.898438 -10.078125 5.679688 -9.804688 6.296875 -9.265625 C 6.910156 -8.722656 7.21875 -8.035156 7.21875 -7.203125 C 7.21875 -6.421875 6.925781 -5.800781 6.34375 -5.34375 C 7.175781 -4.832031 7.59375 -4.078125 7.59375 -3.078125 C 7.59375 -2.128906 7.242188 -1.347656 6.546875 -0.734375 C 5.859375 -0.117188 4.984375 0.1875 3.921875 0.1875 C 3.359375 0.1875 2.84375 0.101562 2.375 -0.0625 C 1.914062 -0.238281 1.554688 -0.441406 1.296875 -0.671875 C 1.035156 -0.910156 0.816406 -1.148438 0.640625 -1.390625 C 0.472656 -1.628906 0.351562 -1.832031 0.28125 -2 L 0.203125 -2.25 L 2.296875 -3.28125 C 2.296875 -3.238281 2.300781 -3.179688 2.3125 -3.109375 C 2.320312 -3.046875 2.363281 -2.925781 2.4375 -2.75 C 2.507812 -2.570312 2.597656 -2.414062 2.703125 -2.28125 C 2.804688 -2.15625 2.960938 -2.035156 3.171875 -1.921875 C 3.378906 -1.816406 3.625 -1.765625 3.90625 -1.765625 C 4.332031 -1.765625 4.675781 -1.878906 4.9375 -2.109375 C 5.207031 -2.335938 5.34375 -2.660156 5.34375 -3.078125 C 5.34375 -3.492188 5.203125 -3.835938 4.921875 -4.109375 C 4.648438 -4.390625 4.3125 -4.53125 3.90625 -4.53125 L 3.484375 -4.453125 L 3.484375 -5.921875 L 3.96875 -5.921875 C 4.28125 -5.921875 4.554688 -6.039062 4.796875 -6.28125 C 5.035156 -6.519531 5.15625 -6.816406 5.15625 -7.171875 C 5.15625 -7.484375 5.03125 -7.742188 4.78125 -7.953125 C 4.539062 -8.160156 4.257812 -8.265625 3.9375 -8.265625 C 3.707031 -8.265625 3.5 -8.222656 3.3125 -8.140625 C 3.125 -8.054688 2.976562 -7.953125 2.875 -7.828125 C 2.769531 -7.710938 2.679688 -7.59375 2.609375 -7.46875 C 2.546875 -7.351562 2.507812 -7.253906 2.5 -7.171875 Z M 2.453125 -7.046875 "/></g></g></g><g fill="#000000" fill-opacity="1"><g transform="translate(152.236072, 104.849996)"><g><path d="M 0.34375 -5.84375 L 0.34375 -8.078125 L 3.171875 -9.90625 L 4.234375 -9.90625 L 4.234375 0 L 1.984375 0 L 1.984375 -6.90625 Z M 0.34375 -5.84375 "/></g></g></g><g fill="#000000" fill-opacity="1"><g transform="translate(156.352077, 104.849996)"><g><path d="M 2.453125 -7.046875 L 0.6875 -7.90625 C 0.695312 -7.957031 0.71875 -8.035156 0.75 -8.140625 C 0.78125 -8.242188 0.875 -8.414062 1.03125 -8.65625 C 1.195312 -8.90625 1.390625 -9.125 1.609375 -9.3125 C 1.828125 -9.507812 2.144531 -9.6875 2.5625 -9.84375 C 2.976562 -10 3.441406 -10.078125 3.953125 -10.078125 C 4.898438 -10.078125 5.679688 -9.804688 6.296875 -9.265625 C 6.910156 -8.722656 7.21875 -8.035156 7.21875 -7.203125 C 7.21875 -6.421875 6.925781 -5.800781 6.34375 -5.34375 C 7.175781 -4.832031 7.59375 -4.078125 7.59375 -3.078125 C 7.59375 -2.128906 7.242188 -1.347656 6.546875 -0.734375 C 5.859375 -0.117188 4.984375 0.1875 3.921875 0.1875 C 3.359375 0.1875 2.84375 0.101562 2.375 -0.0625 C 1.914062 -0.238281 1.554688 -0.441406 1.296875 -0.671875 C 1.035156 -0.910156 0.816406 -1.148438 0.640625 -1.390625 C 0.472656 -1.628906 0.351562 -1.832031 0.28125 -2 L 0.203125 -2.25 L 2.296875 -3.28125 C 2.296875 -3.238281 2.300781 -3.179688 2.3125 -3.109375 C 2.320312 -3.046875 2.363281 -2.925781 2.4375 -2.75 C 2.507812 -2.570312 2.597656 -2.414062 2.703125 -2.28125 C 2.804688 -2.15625 2.960938 -2.035156 3.171875 -1.921875 C 3.378906 -1.816406 3.625 -1.765625 3.90625 -1.765625 C 4.332031 -1.765625 4.675781 -1.878906 4.9375 -2.109375 C 5.207031 -2.335938 5.34375 -2.660156 5.34375 -3.078125 C 5.34375 -3.492188 5.203125 -3.835938 4.921875 -4.109375 C 4.648438 -4.390625 4.3125 -4.53125 3.90625 -4.53125 L 3.484375 -4.453125 L 3.484375 -5.921875 L 3.96875 -5.921875 C 4.28125 -5.921875 4.554688 -6.039062 4.796875 -6.28125 C 5.035156 -6.519531 5.15625 -6.816406 5.15625 -7.171875 C 5.15625 -7.484375 5.03125 -7.742188 4.78125 -7.953125 C 4.539062 -8.160156 4.257812 -8.265625 3.9375 -8.265625 C 3.707031 -8.265625 3.5 -8.222656 3.3125 -8.140625 C 3.125 -8.054688 2.976562 -7.953125 2.875 -7.828125 C 2.769531 -7.710938 2.679688 -7.59375 2.609375 -7.46875 C 2.546875 -7.351562 2.507812 -7.253906 2.5 -7.171875 Z M 2.453125 -7.046875 "/></g></g></g><g fill="#000000" fill-opacity="1"><g transform="translate(46.156168, 125.849995)"><g><path d="M 0.375 1.265625 L 1.8125 0.546875 C 2.082031 0.984375 2.546875 1.203125 3.203125 1.203125 C 3.515625 1.203125 3.800781 1.101562 4.0625 0.90625 C 4.320312 0.71875 4.453125 0.421875 4.453125 0.015625 L 4.453125 -0.375 C 4.140625 -0.0195312 3.582031 0.15625 2.78125 0.15625 C 2.039062 0.15625 1.429688 -0.101562 0.953125 -0.625 C 0.472656 -1.15625 0.234375 -1.800781 0.234375 -2.5625 C 0.234375 -3.320312 0.472656 -3.960938 0.953125 -4.484375 C 1.429688 -5.015625 2.039062 -5.28125 2.78125 -5.28125 C 3.4375 -5.28125 3.988281 -5.078125 4.4375 -4.671875 L 4.453125 -4.671875 L 4.453125 -5.125 L 6.234375 -5.125 L 6.234375 0.140625 C 6.234375 0.972656 5.953125 1.613281 5.390625 2.0625 C 4.835938 2.519531 4.109375 2.75 3.203125 2.75 C 1.742188 2.75 0.800781 2.253906 0.375 1.265625 Z M 2.453125 -3.421875 C 2.222656 -3.203125 2.109375 -2.914062 2.109375 -2.5625 C 2.109375 -2.207031 2.21875 -1.914062 2.4375 -1.6875 C 2.65625 -1.46875 2.945312 -1.359375 3.3125 -1.359375 C 3.65625 -1.359375 3.9375 -1.472656 4.15625 -1.703125 C 4.382812 -1.929688 4.5 -2.21875 4.5 -2.5625 C 4.5 -2.914062 4.382812 -3.203125 4.15625 -3.421875 C 3.925781 -3.648438 3.644531 -3.765625 3.3125 -3.765625 C 2.96875 -3.765625 2.679688 -3.648438 2.453125 -3.421875 Z M 2.453125 -3.421875 "/></g></g></g><g fill="#000000" fill-opacity="1"><g transform="translate(52.703471, 125.849995)"><g><path d="M 0.59375 0 L 0.59375 -5.125 L 2.375 -5.125 L 2.375 -4.390625 L 2.390625 -4.390625 C 2.398438 -4.421875 2.421875 -4.453125 2.453125 -4.484375 C 2.484375 -4.523438 2.546875 -4.59375 2.640625 -4.6875 C 2.742188 -4.789062 2.851562 -4.882812 2.96875 -4.96875 C 3.082031 -5.050781 3.226562 -5.125 3.40625 -5.1875 C 3.59375 -5.25 3.773438 -5.28125 3.953125 -5.28125 C 4.148438 -5.28125 4.34375 -5.253906 4.53125 -5.203125 C 4.71875 -5.148438 4.851562 -5.097656 4.9375 -5.046875 L 5.078125 -4.953125 L 4.34375 -3.453125 C 4.125 -3.640625 3.816406 -3.734375 3.421875 -3.734375 C 3.203125 -3.734375 3.015625 -3.6875 2.859375 -3.59375 C 2.710938 -3.5 2.609375 -3.382812 2.546875 -3.25 C 2.484375 -3.125 2.4375 -3.015625 2.40625 -2.921875 C 2.382812 -2.828125 2.375 -2.753906 2.375 -2.703125 L 2.375 0 Z M 0.59375 0 "/></g></g></g><g fill="#000000" fill-opacity="1"><g transform="translate(57.401501, 125.849995)"><g><path d="M 5.796875 -2.3125 L 2.0625 -2.3125 C 2.0625 -1.957031 2.175781 -1.691406 2.40625 -1.515625 C 2.644531 -1.347656 2.90625 -1.265625 3.1875 -1.265625 C 3.46875 -1.265625 3.691406 -1.300781 3.859375 -1.375 C 4.023438 -1.445312 4.21875 -1.597656 4.4375 -1.828125 L 5.703125 -1.1875 C 5.171875 -0.289062 4.285156 0.15625 3.046875 0.15625 C 2.273438 0.15625 1.613281 -0.109375 1.0625 -0.640625 C 0.507812 -1.171875 0.234375 -1.8125 0.234375 -2.5625 C 0.234375 -3.3125 0.507812 -3.953125 1.0625 -4.484375 C 1.613281 -5.015625 2.273438 -5.28125 3.046875 -5.28125 C 3.859375 -5.28125 4.519531 -5.046875 5.03125 -4.578125 C 5.539062 -4.109375 5.796875 -3.4375 5.796875 -2.5625 C 5.796875 -2.4375 5.796875 -2.351562 5.796875 -2.3125 Z M 2.125 -3.296875 L 4.0625 -3.296875 C 4.03125 -3.566406 3.925781 -3.769531 3.75 -3.90625 C 3.582031 -4.050781 3.363281 -4.125 3.09375 -4.125 C 2.800781 -4.125 2.566406 -4.046875 2.390625 -3.890625 C 2.222656 -3.742188 2.132812 -3.546875 2.125 -3.296875 Z M 2.125 -3.296875 "/></g></g></g><g fill="#000000" fill-opacity="1"><g transform="translate(63.149125, 125.849995)"><g><path d="M 0.953125 -0.625 C 0.472656 -1.15625 0.234375 -1.800781 0.234375 -2.5625 C 0.234375 -3.320312 0.472656 -3.960938 0.953125 -4.484375 C 1.429688 -5.015625 2.039062 -5.28125 2.78125 -5.28125 C 3.457031 -5.28125 4.015625 -5.066406 4.453125 -4.640625 L 4.453125 -5.125 L 6.234375 -5.125 L 6.234375 0 L 4.484375 0 L 4.484375 -0.578125 L 4.453125 -0.578125 C 4.015625 -0.0859375 3.457031 0.15625 2.78125 0.15625 C 2.039062 0.15625 1.429688 -0.101562 0.953125 -0.625 Z M 2.453125 -3.421875 C 2.222656 -3.203125 2.109375 -2.914062 2.109375 -2.5625 C 2.109375 -2.207031 2.21875 -1.914062 2.4375 -1.6875 C 2.65625 -1.46875 2.945312 -1.359375 3.3125 -1.359375 C 3.65625 -1.359375 3.9375 -1.472656 4.15625 -1.703125 C 4.382812 -1.929688 4.5 -2.21875 4.5 -2.5625 C 4.5 -2.914062 4.382812 -3.203125 4.15625 -3.421875 C 3.925781 -3.648438 3.644531 -3.765625 3.3125 -3.765625 C 2.96875 -3.765625 2.679688 -3.648438 2.453125 -3.421875 Z M 2.453125 -3.421875 "/></g></g></g><g fill="#000000" fill-opacity="1"><g transform="translate(69.696429, 125.849995)"><g><path d="M 0.90625 -5.125 L 0.90625 -7.046875 L 2.671875 -7.046875 L 2.671875 -5.125 L 3.75 -5.125 L 3.75 -3.78125 L 2.671875 -3.78125 L 2.671875 -2.15625 C 2.671875 -1.675781 2.800781 -1.4375 3.0625 -1.4375 C 3.132812 -1.4375 3.207031 -1.445312 3.28125 -1.46875 C 3.351562 -1.5 3.410156 -1.53125 3.453125 -1.5625 L 3.515625 -1.59375 L 3.953125 -0.171875 C 3.566406 0.046875 3.132812 0.15625 2.65625 0.15625 C 2.320312 0.15625 2.035156 0.0976562 1.796875 -0.015625 C 1.554688 -0.140625 1.375 -0.300781 1.25 -0.5 C 1.125 -0.695312 1.035156 -0.898438 0.984375 -1.109375 C 0.929688 -1.328125 0.90625 -1.5625 0.90625 -1.8125 L 0.90625 -3.78125 L 0.15625 -3.78125 L 0.15625 -5.125 Z M 0.90625 -5.125 "/></g></g></g><g fill="#000000" fill-opacity="1"><g transform="translate(73.364866, 125.849995)"><g><path d="M 5.875 -4.484375 C 6.351562 -3.960938 6.59375 -3.320312 6.59375 -2.5625 C 6.59375 -1.800781 6.351562 -1.15625 5.875 -0.625 C 5.394531 -0.101562 4.785156 0.15625 4.046875 0.15625 C 3.367188 0.15625 2.8125 -0.0859375 2.375 -0.578125 L 2.34375 -0.578125 L 2.34375 0 L 0.59375 0 L 0.59375 -8.59375 L 2.375 -8.59375 L 2.375 -4.640625 C 2.8125 -5.066406 3.367188 -5.28125 4.046875 -5.28125 C 4.785156 -5.28125 5.394531 -5.015625 5.875 -4.484375 Z M 4.390625 -1.6875 C 4.609375 -1.914062 4.71875 -2.207031 4.71875 -2.5625 C 4.71875 -2.914062 4.601562 -3.203125 4.375 -3.421875 C 4.144531 -3.648438 3.859375 -3.765625 3.515625 -3.765625 C 3.179688 -3.765625 2.898438 -3.648438 2.671875 -3.421875 C 2.441406 -3.203125 2.328125 -2.914062 2.328125 -2.5625 C 2.328125 -2.21875 2.4375 -1.929688 2.65625 -1.703125 C 2.882812 -1.472656 3.171875 -1.359375 3.515625 -1.359375 C 3.878906 -1.359375 4.171875 -1.46875 4.390625 -1.6875 Z M 4.390625 -1.6875 "/></g></g></g><g fill="#000000" fill-opacity="1"><g transform="translate(79.912168, 125.849995)"><g><path d="M 0.953125 -0.625 C 0.472656 -1.15625 0.234375 -1.800781 0.234375 -2.5625 C 0.234375 -3.320312 0.472656 -3.960938 0.953125 -4.484375 C 1.429688 -5.015625 2.039062 -5.28125 2.78125 -5.28125 C 3.457031 -5.28125 4.015625 -5.066406 4.453125 -4.640625 L 4.453125 -5.125 L 6.234375 -5.125 L 6.234375 0 L 4.484375 0 L 4.484375 -0.578125 L 4.453125 -0.578125 C 4.015625 -0.0859375 3.457031 0.15625 2.78125 0.15625 C 2.039062 0.15625 1.429688 -0.101562 0.953125 -0.625 Z M 2.453125 -3.421875 C 2.222656 -3.203125 2.109375 -2.914062 2.109375 -2.5625 C 2.109375 -2.207031 2.21875 -1.914062 2.4375 -1.6875 C 2.65625 -1.46875 2.945312 -1.359375 3.3125 -1.359375 C 3.65625 -1.359375 3.9375 -1.472656 4.15625 -1.703125 C 4.382812 -1.929688 4.5 -2.21875 4.5 -2.5625 C 4.5 -2.914062 4.382812 -3.203125 4.15625 -3.421875 C 3.925781 -3.648438 3.644531 -3.765625 3.3125 -3.765625 C 2.96875 -3.765625 2.679688 -3.648438 2.453125 -3.421875 Z M 2.453125 -3.421875 "/></g></g></g><g fill="#000000" fill-opacity="1"><g transform="translate(86.45947, 125.849995)"><g><path d="M 2.828125 -5.28125 C 3.117188 -5.28125 3.40625 -5.242188 3.6875 -5.171875 C 3.976562 -5.109375 4.195312 -5.046875 4.34375 -4.984375 L 4.546875 -4.875 L 3.96875 -3.71875 C 3.570312 -3.9375 3.191406 -4.046875 2.828125 -4.046875 C 2.628906 -4.046875 2.488281 -4.019531 2.40625 -3.96875 C 2.320312 -3.925781 2.28125 -3.847656 2.28125 -3.734375 C 2.28125 -3.703125 2.28125 -3.671875 2.28125 -3.640625 C 2.289062 -3.617188 2.304688 -3.597656 2.328125 -3.578125 C 2.347656 -3.554688 2.363281 -3.535156 2.375 -3.515625 C 2.394531 -3.492188 2.425781 -3.472656 2.46875 -3.453125 C 2.507812 -3.441406 2.539062 -3.429688 2.5625 -3.421875 C 2.582031 -3.410156 2.617188 -3.394531 2.671875 -3.375 C 2.734375 -3.351562 2.773438 -3.335938 2.796875 -3.328125 C 2.828125 -3.316406 2.875 -3.300781 2.9375 -3.28125 C 3 -3.257812 3.046875 -3.242188 3.078125 -3.234375 C 3.285156 -3.179688 3.460938 -3.117188 3.609375 -3.046875 C 3.765625 -2.972656 3.925781 -2.867188 4.09375 -2.734375 C 4.269531 -2.609375 4.40625 -2.445312 4.5 -2.25 C 4.59375 -2.0625 4.640625 -1.84375 4.640625 -1.59375 C 4.640625 -0.425781 3.828125 0.15625 2.203125 0.15625 C 1.835938 0.15625 1.488281 0.0976562 1.15625 -0.015625 C 0.832031 -0.128906 0.597656 -0.242188 0.453125 -0.359375 L 0.234375 -0.546875 L 0.953125 -1.75 C 1.003906 -1.707031 1.070312 -1.648438 1.15625 -1.578125 C 1.25 -1.515625 1.40625 -1.425781 1.625 -1.3125 C 1.851562 -1.207031 2.050781 -1.15625 2.21875 -1.15625 C 2.582031 -1.15625 2.765625 -1.28125 2.765625 -1.53125 C 2.765625 -1.644531 2.71875 -1.734375 2.625 -1.796875 C 2.53125 -1.859375 2.367188 -1.925781 2.140625 -2 C 1.921875 -2.082031 1.75 -2.160156 1.625 -2.234375 C 1.3125 -2.398438 1.0625 -2.585938 0.875 -2.796875 C 0.6875 -3.003906 0.59375 -3.28125 0.59375 -3.625 C 0.59375 -4.144531 0.789062 -4.550781 1.1875 -4.84375 C 1.59375 -5.132812 2.140625 -5.28125 2.828125 -5.28125 Z M 2.828125 -5.28125 "/></g></g></g><g fill="#000000" fill-opacity="1"><g transform="translate(91.097531, 125.849995)"><g><path d="M 0.765625 -7.984375 C 0.972656 -8.191406 1.21875 -8.296875 1.5 -8.296875 C 1.789062 -8.296875 2.039062 -8.191406 2.25 -7.984375 C 2.457031 -7.785156 2.5625 -7.539062 2.5625 -7.25 C 2.5625 -6.957031 2.457031 -6.707031 2.25 -6.5 C 2.039062 -6.300781 1.789062 -6.203125 1.5 -6.203125 C 1.21875 -6.203125 0.972656 -6.300781 0.765625 -6.5 C 0.554688 -6.707031 0.453125 -6.957031 0.453125 -7.25 C 0.453125 -7.539062 0.554688 -7.785156 0.765625 -7.984375 Z M 0.59375 -5.125 L 0.59375 0 L 2.375 0 L 2.375 -5.125 Z M 0.59375 -5.125 "/></g></g></g><g fill="#000000" fill-opacity="1"><g transform="translate(93.836343, 125.849995)"><g><path d="M 0.59375 0 L 0.59375 -5.125 L 2.375 -5.125 L 2.375 -4.59375 L 2.390625 -4.59375 C 2.847656 -5.050781 3.335938 -5.28125 3.859375 -5.28125 C 4.109375 -5.28125 4.359375 -5.242188 4.609375 -5.171875 C 4.859375 -5.109375 5.097656 -5.003906 5.328125 -4.859375 C 5.566406 -4.722656 5.753906 -4.523438 5.890625 -4.265625 C 6.035156 -4.015625 6.109375 -3.71875 6.109375 -3.375 L 6.109375 0 L 4.34375 0 L 4.34375 -2.90625 C 4.34375 -3.164062 4.253906 -3.394531 4.078125 -3.59375 C 3.910156 -3.800781 3.691406 -3.90625 3.421875 -3.90625 C 3.148438 -3.90625 2.90625 -3.800781 2.6875 -3.59375 C 2.476562 -3.382812 2.375 -3.15625 2.375 -2.90625 L 2.375 0 Z M 0.59375 0 "/></g></g></g><g fill="#000000" fill-opacity="1"><g transform="translate(100.163735, 125.849995)"><g><path d="M 0.953125 -0.625 C 0.472656 -1.15625 0.234375 -1.800781 0.234375 -2.5625 C 0.234375 -3.320312 0.472656 -3.960938 0.953125 -4.484375 C 1.429688 -5.015625 2.039062 -5.28125 2.78125 -5.28125 C 3.457031 -5.28125 4.015625 -5.066406 4.453125 -4.640625 L 4.453125 -5.125 L 6.234375 -5.125 L 6.234375 0 L 4.484375 0 L 4.484375 -0.578125 L 4.453125 -0.578125 C 4.015625 -0.0859375 3.457031 0.15625 2.78125 0.15625 C 2.039062 0.15625 1.429688 -0.101562 0.953125 -0.625 Z M 2.453125 -3.421875 C 2.222656 -3.203125 2.109375 -2.914062 2.109375 -2.5625 C 2.109375 -2.207031 2.21875 -1.914062 2.4375 -1.6875 C 2.65625 -1.46875 2.945312 -1.359375 3.3125 -1.359375 C 3.65625 -1.359375 3.9375 -1.472656 4.15625 -1.703125 C 4.382812 -1.929688 4.5 -2.21875 4.5 -2.5625 C 4.5 -2.914062 4.382812 -3.203125 4.15625 -3.421875 C 3.925781 -3.648438 3.644531 -3.765625 3.3125 -3.765625 C 2.96875 -3.765625 2.679688 -3.648438 2.453125 -3.421875 Z M 2.453125 -3.421875 "/></g></g></g><g fill="#000000" fill-opacity="1"><g transform="translate(106.711037, 125.849995)"><g><path d="M 3.328125 -3.828125 C 2.992188 -3.828125 2.707031 -3.703125 2.46875 -3.453125 C 2.226562 -3.210938 2.109375 -2.914062 2.109375 -2.5625 C 2.109375 -2.21875 2.226562 -1.921875 2.46875 -1.671875 C 2.707031 -1.421875 2.992188 -1.296875 3.328125 -1.296875 C 3.484375 -1.296875 3.632812 -1.316406 3.78125 -1.359375 C 3.925781 -1.398438 4.03125 -1.441406 4.09375 -1.484375 L 4.1875 -1.546875 L 4.796875 -0.3125 C 4.742188 -0.28125 4.675781 -0.238281 4.59375 -0.1875 C 4.507812 -0.132812 4.316406 -0.0664062 4.015625 0.015625 C 3.722656 0.109375 3.40625 0.15625 3.0625 0.15625 C 2.3125 0.15625 1.648438 -0.109375 1.078125 -0.640625 C 0.515625 -1.171875 0.234375 -1.804688 0.234375 -2.546875 C 0.234375 -3.296875 0.515625 -3.9375 1.078125 -4.46875 C 1.648438 -5.007812 2.3125 -5.28125 3.0625 -5.28125 C 3.40625 -5.28125 3.71875 -5.238281 4 -5.15625 C 4.289062 -5.082031 4.5 -5.003906 4.625 -4.921875 L 4.796875 -4.796875 L 4.1875 -3.59375 C 3.96875 -3.75 3.679688 -3.828125 3.328125 -3.828125 Z M 3.328125 -3.828125 "/></g></g></g><g fill="#000000" fill-opacity="1"><g transform="translate(111.339096, 125.849995)"><g><path d="M 1.078125 -0.609375 C 0.515625 -1.117188 0.234375 -1.769531 0.234375 -2.5625 C 0.234375 -3.351562 0.53125 -4.003906 1.125 -4.515625 C 1.71875 -5.023438 2.445312 -5.28125 3.3125 -5.28125 C 4.175781 -5.28125 4.898438 -5.019531 5.484375 -4.5 C 6.078125 -3.988281 6.375 -3.335938 6.375 -2.546875 C 6.375 -1.765625 6.085938 -1.117188 5.515625 -0.609375 C 4.941406 -0.0976562 4.207031 0.15625 3.3125 0.15625 C 2.394531 0.15625 1.648438 -0.0976562 1.078125 -0.609375 Z M 2.453125 -3.421875 C 2.222656 -3.203125 2.109375 -2.914062 2.109375 -2.5625 C 2.109375 -2.207031 2.21875 -1.914062 2.4375 -1.6875 C 2.65625 -1.46875 2.945312 -1.359375 3.3125 -1.359375 C 3.65625 -1.359375 3.9375 -1.472656 4.15625 -1.703125 C 4.382812 -1.929688 4.5 -2.21875 4.5 -2.5625 C 4.5 -2.914062 4.382812 -3.203125 4.15625 -3.421875 C 3.925781 -3.648438 3.644531 -3.765625 3.3125 -3.765625 C 2.96875 -3.765625 2.679688 -3.648438 2.453125 -3.421875 Z M 2.453125 -3.421875 "/></g></g></g><g fill="#000000" fill-opacity="1"><g transform="translate(117.666488, 125.849995)"><g><path d="M 2.265625 -5.125 L 2.265625 -2.6875 C 2.265625 -2.1875 2.34375 -1.828125 2.5 -1.609375 C 2.65625 -1.398438 2.914062 -1.296875 3.28125 -1.296875 C 3.644531 -1.296875 3.90625 -1.398438 4.0625 -1.609375 C 4.21875 -1.828125 4.296875 -2.1875 4.296875 -2.6875 L 4.296875 -5.125 L 6.0625 -5.125 L 6.0625 -2.265625 C 6.0625 -1.410156 5.835938 -0.789062 5.390625 -0.40625 C 4.953125 -0.03125 4.25 0.15625 3.28125 0.15625 C 2.3125 0.15625 1.601562 -0.03125 1.15625 -0.40625 C 0.71875 -0.789062 0.5 -1.410156 0.5 -2.265625 L 0.5 -5.125 Z M 2.265625 -5.125 "/></g></g></g><g fill="#000000" fill-opacity="1"><g transform="translate(123.943904, 125.849995)"><g><path d="M 2.828125 -5.28125 C 3.117188 -5.28125 3.40625 -5.242188 3.6875 -5.171875 C 3.976562 -5.109375 4.195312 -5.046875 4.34375 -4.984375 L 4.546875 -4.875 L 3.96875 -3.71875 C 3.570312 -3.9375 3.191406 -4.046875 2.828125 -4.046875 C 2.628906 -4.046875 2.488281 -4.019531 2.40625 -3.96875 C 2.320312 -3.925781 2.28125 -3.847656 2.28125 -3.734375 C 2.28125 -3.703125 2.28125 -3.671875 2.28125 -3.640625 C 2.289062 -3.617188 2.304688 -3.597656 2.328125 -3.578125 C 2.347656 -3.554688 2.363281 -3.535156 2.375 -3.515625 C 2.394531 -3.492188 2.425781 -3.472656 2.46875 -3.453125 C 2.507812 -3.441406 2.539062 -3.429688 2.5625 -3.421875 C 2.582031 -3.410156 2.617188 -3.394531 2.671875 -3.375 C 2.734375 -3.351562 2.773438 -3.335938 2.796875 -3.328125 C 2.828125 -3.316406 2.875 -3.300781 2.9375 -3.28125 C 3 -3.257812 3.046875 -3.242188 3.078125 -3.234375 C 3.285156 -3.179688 3.460938 -3.117188 3.609375 -3.046875 C 3.765625 -2.972656 3.925781 -2.867188 4.09375 -2.734375 C 4.269531 -2.609375 4.40625 -2.445312 4.5 -2.25 C 4.59375 -2.0625 4.640625 -1.84375 4.640625 -1.59375 C 4.640625 -0.425781 3.828125 0.15625 2.203125 0.15625 C 1.835938 0.15625 1.488281 0.0976562 1.15625 -0.015625 C 0.832031 -0.128906 0.597656 -0.242188 0.453125 -0.359375 L 0.234375 -0.546875 L 0.953125 -1.75 C 1.003906 -1.707031 1.070312 -1.648438 1.15625 -1.578125 C 1.25 -1.515625 1.40625 -1.425781 1.625 -1.3125 C 1.851562 -1.207031 2.050781 -1.15625 2.21875 -1.15625 C 2.582031 -1.15625 2.765625 -1.28125 2.765625 -1.53125 C 2.765625 -1.644531 2.71875 -1.734375 2.625 -1.796875 C 2.53125 -1.859375 2.367188 -1.925781 2.140625 -2 C 1.921875 -2.082031 1.75 -2.160156 1.625 -2.234375 C 1.3125 -2.398438 1.0625 -2.585938 0.875 -2.796875 C 0.6875 -3.003906 0.59375 -3.28125 0.59375 -3.625 C 0.59375 -4.144531 0.789062 -4.550781 1.1875 -4.84375 C 1.59375 -5.132812 2.140625 -5.28125 2.828125 -5.28125 Z M 2.828125 -5.28125 "/></g></g></g><g fill="#000000" fill-opacity="1"><g transform="translate(128.581965, 125.849995)"><g><path d="M 0.90625 -5.125 L 0.90625 -7.046875 L 2.671875 -7.046875 L 2.671875 -5.125 L 3.75 -5.125 L 3.75 -3.78125 L 2.671875 -3.78125 L 2.671875 -2.15625 C 2.671875 -1.675781 2.800781 -1.4375 3.0625 -1.4375 C 3.132812 -1.4375 3.207031 -1.445312 3.28125 -1.46875 C 3.351562 -1.5 3.410156 -1.53125 3.453125 -1.5625 L 3.515625 -1.59375 L 3.953125 -0.171875 C 3.566406 0.046875 3.132812 0.15625 2.65625 0.15625 C 2.320312 0.15625 2.035156 0.0976562 1.796875 -0.015625 C 1.554688 -0.140625 1.375 -0.300781 1.25 -0.5 C 1.125 -0.695312 1.035156 -0.898438 0.984375 -1.109375 C 0.929688 -1.328125 0.90625 -1.5625 0.90625 -1.8125 L 0.90625 -3.78125 L 0.15625 -3.78125 L 0.15625 -5.125 Z M 0.90625 -5.125 "/></g></g></g><g fill="#000000" fill-opacity="1"><g transform="translate(132.250403, 125.849995)"><g><path d="M 0.765625 -7.984375 C 0.972656 -8.191406 1.21875 -8.296875 1.5 -8.296875 C 1.789062 -8.296875 2.039062 -8.191406 2.25 -7.984375 C 2.457031 -7.785156 2.5625 -7.539062 2.5625 -7.25 C 2.5625 -6.957031 2.457031 -6.707031 2.25 -6.5 C 2.039062 -6.300781 1.789062 -6.203125 1.5 -6.203125 C 1.21875 -6.203125 0.972656 -6.300781 0.765625 -6.5 C 0.554688 -6.707031 0.453125 -6.957031 0.453125 -7.25 C 0.453125 -7.539062 0.554688 -7.785156 0.765625 -7.984375 Z M 0.59375 -5.125 L 0.59375 0 L 2.375 0 L 2.375 -5.125 Z M 0.59375 -5.125 "/></g></g></g><g fill="#000000" fill-opacity="1"><g transform="translate(134.989214, 125.849995)"><g><path d="M 3.328125 -3.828125 C 2.992188 -3.828125 2.707031 -3.703125 2.46875 -3.453125 C 2.226562 -3.210938 2.109375 -2.914062 2.109375 -2.5625 C 2.109375 -2.21875 2.226562 -1.921875 2.46875 -1.671875 C 2.707031 -1.421875 2.992188 -1.296875 3.328125 -1.296875 C 3.484375 -1.296875 3.632812 -1.316406 3.78125 -1.359375 C 3.925781 -1.398438 4.03125 -1.441406 4.09375 -1.484375 L 4.1875 -1.546875 L 4.796875 -0.3125 C 4.742188 -0.28125 4.675781 -0.238281 4.59375 -0.1875 C 4.507812 -0.132812 4.316406 -0.0664062 4.015625 0.015625 C 3.722656 0.109375 3.40625 0.15625 3.0625 0.15625 C 2.3125 0.15625 1.648438 -0.109375 1.078125 -0.640625 C 0.515625 -1.171875 0.234375 -1.804688 0.234375 -2.546875 C 0.234375 -3.296875 0.515625 -3.9375 1.078125 -4.46875 C 1.648438 -5.007812 2.3125 -5.28125 3.0625 -5.28125 C 3.40625 -5.28125 3.71875 -5.238281 4 -5.15625 C 4.289062 -5.082031 4.5 -5.003906 4.625 -4.921875 L 4.796875 -4.796875 L 4.1875 -3.59375 C 3.96875 -3.75 3.679688 -3.828125 3.328125 -3.828125 Z M 3.328125 -3.828125 "/></g></g></g><g fill="#000000" fill-opacity="1"><g transform="translate(139.617273, 125.849995)"><g><path d="M 2.828125 -5.28125 C 3.117188 -5.28125 3.40625 -5.242188 3.6875 -5.171875 C 3.976562 -5.109375 4.195312 -5.046875 4.34375 -4.984375 L 4.546875 -4.875 L 3.96875 -3.71875 C 3.570312 -3.9375 3.191406 -4.046875 2.828125 -4.046875 C 2.628906 -4.046875 2.488281 -4.019531 2.40625 -3.96875 C 2.320312 -3.925781 2.28125 -3.847656 2.28125 -3.734375 C 2.28125 -3.703125 2.28125 -3.671875 2.28125 -3.640625 C 2.289062 -3.617188 2.304688 -3.597656 2.328125 -3.578125 C 2.347656 -3.554688 2.363281 -3.535156 2.375 -3.515625 C 2.394531 -3.492188 2.425781 -3.472656 2.46875 -3.453125 C 2.507812 -3.441406 2.539062 -3.429688 2.5625 -3.421875 C 2.582031 -3.410156 2.617188 -3.394531 2.671875 -3.375 C 2.734375 -3.351562 2.773438 -3.335938 2.796875 -3.328125 C 2.828125 -3.316406 2.875 -3.300781 2.9375 -3.28125 C 3 -3.257812 3.046875 -3.242188 3.078125 -3.234375 C 3.285156 -3.179688 3.460938 -3.117188 3.609375 -3.046875 C 3.765625 -2.972656 3.925781 -2.867188 4.09375 -2.734375 C 4.269531 -2.609375 4.40625 -2.445312 4.5 -2.25 C 4.59375 -2.0625 4.640625 -1.84375 4.640625 -1.59375 C 4.640625 -0.425781 3.828125 0.15625 2.203125 0.15625 C 1.835938 0.15625 1.488281 0.0976562 1.15625 -0.015625 C 0.832031 -0.128906 0.597656 -0.242188 0.453125 -0.359375 L 0.234375 -0.546875 L 0.953125 -1.75 C 1.003906 -1.707031 1.070312 -1.648438 1.15625 -1.578125 C 1.25 -1.515625 1.40625 -1.425781 1.625 -1.3125 C 1.851562 -1.207031 2.050781 -1.15625 2.21875 -1.15625 C 2.582031 -1.15625 2.765625 -1.28125 2.765625 -1.53125 C 2.765625 -1.644531 2.71875 -1.734375 2.625 -1.796875 C 2.53125 -1.859375 2.367188 -1.925781 2.140625 -2 C 1.921875 -2.082031 1.75 -2.160156 1.625 -2.234375 C 1.3125 -2.398438 1.0625 -2.585938 0.875 -2.796875 C 0.6875 -3.003906 0.59375 -3.28125 0.59375 -3.625 C 0.59375 -4.144531 0.789062 -4.550781 1.1875 -4.84375 C 1.59375 -5.132812 2.140625 -5.28125 2.828125 -5.28125 Z M 2.828125 -5.28125 "/></g></g></g><g fill="#000000" fill-opacity="1"><g transform="translate(144.25534, 125.849995)"><g><path d="M 7.1875 -3.4375 C 7.40625 -3.4375 7.5625 -3.507812 7.65625 -3.65625 C 7.75 -3.800781 7.796875 -4.054688 7.796875 -4.421875 C 7.796875 -5.203125 7.503906 -5.84375 6.921875 -6.34375 C 6.335938 -6.84375 5.609375 -7.09375 4.734375 -7.09375 C 3.878906 -7.09375 3.15625 -6.800781 2.5625 -6.21875 C 1.976562 -5.644531 1.6875 -4.945312 1.6875 -4.125 C 1.6875 -3.320312 1.984375 -2.644531 2.578125 -2.09375 C 3.171875 -1.539062 3.890625 -1.265625 4.734375 -1.265625 C 5.117188 -1.265625 5.46875 -1.320312 5.78125 -1.4375 C 6.09375 -1.550781 6.304688 -1.664062 6.421875 -1.78125 L 6.59375 -1.953125 L 7.765625 -1.1875 C 7.734375 -1.144531 7.691406 -1.09375 7.640625 -1.03125 C 7.597656 -0.976562 7.488281 -0.875 7.3125 -0.71875 C 7.132812 -0.5625 6.9375 -0.425781 6.71875 -0.3125 C 6.507812 -0.195312 6.222656 -0.09375 5.859375 0 C 5.503906 0.101562 5.128906 0.15625 4.734375 0.15625 C 3.921875 0.15625 3.171875 -0.0195312 2.484375 -0.375 C 1.796875 -0.738281 1.25 -1.25 0.84375 -1.90625 C 0.4375 -2.5625 0.234375 -3.300781 0.234375 -4.125 C 0.234375 -4.957031 0.4375 -5.703125 0.84375 -6.359375 C 1.25 -7.015625 1.796875 -7.519531 2.484375 -7.875 C 3.171875 -8.226562 3.921875 -8.40625 4.734375 -8.40625 C 5.921875 -8.40625 6.925781 -8.03125 7.75 -7.28125 C 8.570312 -6.53125 8.984375 -5.578125 8.984375 -4.421875 C 8.984375 -3.691406 8.785156 -3.144531 8.390625 -2.78125 C 7.992188 -2.414062 7.515625 -2.234375 6.953125 -2.234375 C 6.390625 -2.234375 5.925781 -2.382812 5.5625 -2.6875 L 5.484375 -2.5625 C 5.148438 -2.195312 4.726562 -2.015625 4.21875 -2.015625 C 3.675781 -2.015625 3.222656 -2.207031 2.859375 -2.59375 C 2.503906 -2.988281 2.328125 -3.46875 2.328125 -4.03125 C 2.328125 -4.601562 2.503906 -5.082031 2.859375 -5.46875 C 3.222656 -5.863281 3.675781 -6.0625 4.21875 -6.0625 C 4.726562 -6.0625 5.148438 -5.898438 5.484375 -5.578125 L 5.484375 -5.953125 L 6.671875 -5.953125 L 6.671875 -3.859375 C 6.671875 -3.828125 6.675781 -3.785156 6.6875 -3.734375 C 6.695312 -3.691406 6.742188 -3.628906 6.828125 -3.546875 C 6.921875 -3.472656 7.039062 -3.4375 7.1875 -3.4375 Z M 4.109375 -4.640625 C 3.953125 -4.484375 3.875 -4.285156 3.875 -4.046875 C 3.875 -3.816406 3.945312 -3.625 4.09375 -3.46875 C 4.25 -3.320312 4.445312 -3.25 4.6875 -3.25 C 4.914062 -3.25 5.101562 -3.320312 5.25 -3.46875 C 5.40625 -3.625 5.484375 -3.816406 5.484375 -4.046875 C 5.484375 -4.285156 5.40625 -4.484375 5.25 -4.640625 C 5.09375 -4.796875 4.90625 -4.875 4.6875 -4.875 C 4.457031 -4.875 4.265625 -4.796875 4.109375 -4.640625 Z M 4.109375 -4.640625 "/></g></g></g><g fill="#000000" fill-opacity="1"><g transform="translate(153.181708, 125.849995)"><g><path d="M 0.375 1.265625 L 1.8125 0.546875 C 2.082031 0.984375 2.546875 1.203125 3.203125 1.203125 C 3.515625 1.203125 3.800781 1.101562 4.0625 0.90625 C 4.320312 0.71875 4.453125 0.421875 4.453125 0.015625 L 4.453125 -0.375 C 4.140625 -0.0195312 3.582031 0.15625 2.78125 0.15625 C 2.039062 0.15625 1.429688 -0.101562 0.953125 -0.625 C 0.472656 -1.15625 0.234375 -1.800781 0.234375 -2.5625 C 0.234375 -3.320312 0.472656 -3.960938 0.953125 -4.484375 C 1.429688 -5.015625 2.039062 -5.28125 2.78125 -5.28125 C 3.4375 -5.28125 3.988281 -5.078125 4.4375 -4.671875 L 4.453125 -4.671875 L 4.453125 -5.125 L 6.234375 -5.125 L 6.234375 0.140625 C 6.234375 0.972656 5.953125 1.613281 5.390625 2.0625 C 4.835938 2.519531 4.109375 2.75 3.203125 2.75 C 1.742188 2.75 0.800781 2.253906 0.375 1.265625 Z M 2.453125 -3.421875 C 2.222656 -3.203125 2.109375 -2.914062 2.109375 -2.5625 C 2.109375 -2.207031 2.21875 -1.914062 2.4375 -1.6875 C 2.65625 -1.46875 2.945312 -1.359375 3.3125 -1.359375 C 3.65625 -1.359375 3.9375 -1.472656 4.15625 -1.703125 C 4.382812 -1.929688 4.5 -2.21875 4.5 -2.5625 C 4.5 -2.914062 4.382812 -3.203125 4.15625 -3.421875 C 3.925781 -3.648438 3.644531 -3.765625 3.3125 -3.765625 C 2.96875 -3.765625 2.679688 -3.648438 2.453125 -3.421875 Z M 2.453125 -3.421875 "/></g></g></g><g fill="#000000" fill-opacity="1"><g transform="translate(159.72901, 125.849995)"><g><path d="M 0.59375 0 L 0.59375 -5.125 L 2.375 -5.125 L 2.375 -4.59375 L 2.390625 -4.59375 C 2.847656 -5.050781 3.335938 -5.28125 3.859375 -5.28125 C 4.234375 -5.28125 4.582031 -5.203125 4.90625 -5.046875 C 5.238281 -4.890625 5.488281 -4.65625 5.65625 -4.34375 C 6.175781 -4.96875 6.738281 -5.28125 7.34375 -5.28125 C 7.894531 -5.28125 8.363281 -5.125 8.75 -4.8125 C 9.144531 -4.507812 9.34375 -4.03125 9.34375 -3.375 L 9.34375 0 L 7.578125 0 L 7.578125 -2.90625 C 7.578125 -3.175781 7.5 -3.398438 7.34375 -3.578125 C 7.195312 -3.765625 6.976562 -3.859375 6.6875 -3.859375 C 6.425781 -3.859375 6.222656 -3.78125 6.078125 -3.625 C 5.941406 -3.46875 5.867188 -3.28125 5.859375 -3.0625 L 5.859375 0 L 4.09375 0 L 4.09375 -2.90625 C 4.09375 -3.175781 4.015625 -3.398438 3.859375 -3.578125 C 3.710938 -3.765625 3.488281 -3.859375 3.1875 -3.859375 C 2.914062 -3.859375 2.710938 -3.769531 2.578125 -3.59375 C 2.441406 -3.425781 2.375 -3.226562 2.375 -3 L 2.375 0 Z M 0.59375 0 "/></g></g></g><g fill="#000000" fill-opacity="1"><g transform="translate(169.295126, 125.849995)"><g><path d="M 0.953125 -0.625 C 0.472656 -1.15625 0.234375 -1.800781 0.234375 -2.5625 C 0.234375 -3.320312 0.472656 -3.960938 0.953125 -4.484375 C 1.429688 -5.015625 2.039062 -5.28125 2.78125 -5.28125 C 3.457031 -5.28125 4.015625 -5.066406 4.453125 -4.640625 L 4.453125 -5.125 L 6.234375 -5.125 L 6.234375 0 L 4.484375 0 L 4.484375 -0.578125 L 4.453125 -0.578125 C 4.015625 -0.0859375 3.457031 0.15625 2.78125 0.15625 C 2.039062 0.15625 1.429688 -0.101562 0.953125 -0.625 Z M 2.453125 -3.421875 C 2.222656 -3.203125 2.109375 -2.914062 2.109375 -2.5625 C 2.109375 -2.207031 2.21875 -1.914062 2.4375 -1.6875 C 2.65625 -1.46875 2.945312 -1.359375 3.3125 -1.359375 C 3.65625 -1.359375 3.9375 -1.472656 4.15625 -1.703125 C 4.382812 -1.929688 4.5 -2.21875 4.5 -2.5625 C 4.5 -2.914062 4.382812 -3.203125 4.15625 -3.421875 C 3.925781 -3.648438 3.644531 -3.765625 3.3125 -3.765625 C 2.96875 -3.765625 2.679688 -3.648438 2.453125 -3.421875 Z M 2.453125 -3.421875 "/></g></g></g><g fill="#000000" fill-opacity="1"><g transform="translate(175.842428, 125.849995)"><g><path d="M 0.765625 -7.984375 C 0.972656 -8.191406 1.21875 -8.296875 1.5 -8.296875 C 1.789062 -8.296875 2.039062 -8.191406 2.25 -7.984375 C 2.457031 -7.785156 2.5625 -7.539062 2.5625 -7.25 C 2.5625 -6.957031 2.457031 -6.707031 2.25 -6.5 C 2.039062 -6.300781 1.789062 -6.203125 1.5 -6.203125 C 1.21875 -6.203125 0.972656 -6.300781 0.765625 -6.5 C 0.554688 -6.707031 0.453125 -6.957031 0.453125 -7.25 C 0.453125 -7.539062 0.554688 -7.785156 0.765625 -7.984375 Z M 0.59375 -5.125 L 0.59375 0 L 2.375 0 L 2.375 -5.125 Z M 0.59375 -5.125 "/></g></g></g><g fill="#000000" fill-opacity="1"><g transform="translate(178.581239, 125.849995)"><g><path d="M 0.59375 0 L 0.59375 -8.59375 L 2.375 -8.59375 L 2.375 0 Z M 0.59375 0 "/></g></g></g><g fill="#000000" fill-opacity="1"><g transform="translate(181.270063, 125.849995)"><g><path d="M 1.734375 -2.140625 C 2.054688 -2.140625 2.328125 -2.023438 2.546875 -1.796875 C 2.773438 -1.578125 2.890625 -1.304688 2.890625 -0.984375 C 2.890625 -0.671875 2.773438 -0.398438 2.546875 -0.171875 C 2.328125 0.046875 2.054688 0.15625 1.734375 0.15625 C 1.421875 0.15625 1.148438 0.046875 0.921875 -0.171875 C 0.703125 -0.398438 0.59375 -0.671875 0.59375 -0.984375 C 0.59375 -1.304688 0.703125 -1.578125 0.921875 -1.796875 C 1.148438 -2.023438 1.421875 -2.140625 1.734375 -2.140625 Z M 1.734375 -2.140625 "/></g></g></g><g fill="#000000" fill-opacity="1"><g transform="translate(184.478688, 125.849995)"><g><path d="M 3.328125 -3.828125 C 2.992188 -3.828125 2.707031 -3.703125 2.46875 -3.453125 C 2.226562 -3.210938 2.109375 -2.914062 2.109375 -2.5625 C 2.109375 -2.21875 2.226562 -1.921875 2.46875 -1.671875 C 2.707031 -1.421875 2.992188 -1.296875 3.328125 -1.296875 C 3.484375 -1.296875 3.632812 -1.316406 3.78125 -1.359375 C 3.925781 -1.398438 4.03125 -1.441406 4.09375 -1.484375 L 4.1875 -1.546875 L 4.796875 -0.3125 C 4.742188 -0.28125 4.675781 -0.238281 4.59375 -0.1875 C 4.507812 -0.132812 4.316406 -0.0664062 4.015625 0.015625 C 3.722656 0.109375 3.40625 0.15625 3.0625 0.15625 C 2.3125 0.15625 1.648438 -0.109375 1.078125 -0.640625 C 0.515625 -1.171875 0.234375 -1.804688 0.234375 -2.546875 C 0.234375 -3.296875 0.515625 -3.9375 1.078125 -4.46875 C 1.648438 -5.007812 2.3125 -5.28125 3.0625 -5.28125 C 3.40625 -5.28125 3.71875 -5.238281 4 -5.15625 C 4.289062 -5.082031 4.5 -5.003906 4.625 -4.921875 L 4.796875 -4.796875 L 4.1875 -3.59375 C 3.96875 -3.75 3.679688 -3.828125 3.328125 -3.828125 Z M 3.328125 -3.828125 "/></g></g></g><g fill="#000000" fill-opacity="1"><g transform="translate(189.106747, 125.849995)"><g><path d="M 1.078125 -0.609375 C 0.515625 -1.117188 0.234375 -1.769531 0.234375 -2.5625 C 0.234375 -3.351562 0.53125 -4.003906 1.125 -4.515625 C 1.71875 -5.023438 2.445312 -5.28125 3.3125 -5.28125 C 4.175781 -5.28125 4.898438 -5.019531 5.484375 -4.5 C 6.078125 -3.988281 6.375 -3.335938 6.375 -2.546875 C 6.375 -1.765625 6.085938 -1.117188 5.515625 -0.609375 C 4.941406 -0.0976562 4.207031 0.15625 3.3125 0.15625 C 2.394531 0.15625 1.648438 -0.0976562 1.078125 -0.609375 Z M 2.453125 -3.421875 C 2.222656 -3.203125 2.109375 -2.914062 2.109375 -2.5625 C 2.109375 -2.207031 2.21875 -1.914062 2.4375 -1.6875 C 2.65625 -1.46875 2.945312 -1.359375 3.3125 -1.359375 C 3.65625 -1.359375 3.9375 -1.472656 4.15625 -1.703125 C 4.382812 -1.929688 4.5 -2.21875 4.5 -2.5625 C 4.5 -2.914062 4.382812 -3.203125 4.15625 -3.421875 C 3.925781 -3.648438 3.644531 -3.765625 3.3125 -3.765625 C 2.96875 -3.765625 2.679688 -3.648438 2.453125 -3.421875 Z M 2.453125 -3.421875 "/></g></g></g><g fill="#000000" fill-opacity="1"><g transform="translate(195.43414, 125.849995)"><g><path d="M 0.59375 0 L 0.59375 -5.125 L 2.375 -5.125 L 2.375 -4.59375 L 2.390625 -4.59375 C 2.847656 -5.050781 3.335938 -5.28125 3.859375 -5.28125 C 4.234375 -5.28125 4.582031 -5.203125 4.90625 -5.046875 C 5.238281 -4.890625 5.488281 -4.65625 5.65625 -4.34375 C 6.175781 -4.96875 6.738281 -5.28125 7.34375 -5.28125 C 7.894531 -5.28125 8.363281 -5.125 8.75 -4.8125 C 9.144531 -4.507812 9.34375 -4.03125 9.34375 -3.375 L 9.34375 0 L 7.578125 0 L 7.578125 -2.90625 C 7.578125 -3.175781 7.5 -3.398438 7.34375 -3.578125 C 7.195312 -3.765625 6.976562 -3.859375 6.6875 -3.859375 C 6.425781 -3.859375 6.222656 -3.78125 6.078125 -3.625 C 5.941406 -3.46875 5.867188 -3.28125 5.859375 -3.0625 L 5.859375 0 L 4.09375 0 L 4.09375 -2.90625 C 4.09375 -3.175781 4.015625 -3.398438 3.859375 -3.578125 C 3.710938 -3.765625 3.488281 -3.859375 3.1875 -3.859375 C 2.914062 -3.859375 2.710938 -3.769531 2.578125 -3.59375 C 2.441406 -3.425781 2.375 -3.226562 2.375 -3 L 2.375 0 Z M 0.59375 0 "/></g></g></g></svg>